<?xml version="1.0" standalone="no"?>
<!DOCTYPE svg PUBLIC "-//W3C//DTD SVG 1.1//EN" "http://www.w3.org/Graphics/SVG/1.1/DTD/svg11.dtd" >
<svg xmlns="http://www.w3.org/2000/svg">
<metadata>Generated by IcoMoon</metadata>
<defs>
<font id="icomoon" horiz-adv-x="1024">
<font-face units-per-em="1024" ascent="960" descent="-64" />
<missing-glyph horiz-adv-x="1024" />
<glyph unicode="&#x20;" horiz-adv-x="512" d="" />
<glyph unicode="&#xe600;" glyph-name="weibo" d="M385.714 217.143q12 19.429 6.286 39.429t-25.714 28.571q-19.429 8-41.714 0.571t-34.286-26.286q-12.571-19.429-7.429-39.143t24.571-28.857 42.571-1.429 35.714 27.143zM439.429 286.286q4.571 7.429 2 15.143t-10 10.571q-8 2.857-16.286-0.286t-12.286-10.571q-9.714-17.714 7.429-25.714 8-2.857 16.571 0.286t12.571 10.571zM538.857 225.143q-25.714-58.286-90.286-85.714t-128-6.857q-61.143 19.429-84.286 72.286t3.714 107.143q26.857 53.143 86.571 79.429t120.286 10.857q63.429-16.571 90.571-68.286t1.429-108.857zM717.143 316.571q-5.143 54.857-50.857 97.143t-119.143 62.286-156.857 12q-127.429-13.143-211.143-80.857t-75.714-151.143q5.143-54.857 50.857-97.143t119.143-62.286 156.857-12q127.429 13.143 211.143 80.857t75.714 151.143zM893.143 314.286q0-38.857-21.143-79.714t-62.286-78.286-96.286-67.143-129.143-47.429-154.571-17.714-157.143 19.143-137.429 53.143-98 86.286-37.143 114q0 65.714 39.714 140t112.857 147.429q96.571 96.571 195.143 134.857t140.857-4q37.143-36.571 11.429-119.429-2.286-8-0.571-11.429t5.714-4 8.286 0.286 7.714 2l3.429 1.143q79.429 33.714 140.571 33.714t87.429-34.857q25.714-36 0-101.714-1.143-7.429-2.571-11.429t2.571-7.143 6.857-4.286 9.714-3.429q32.571-10.286 58.857-26.857t45.714-46.571 19.429-66.571zM850.857 670.857q24-26.857 31.143-62t-3.714-67.143q-4.571-13.143-16.857-19.429t-25.429-2.286q-13.143 4.571-19.429 16.857t-2.286 25.429q11.429 36-13.714 63.429t-61.143 20q-13.714-2.857-25.714 4.571t-14.286 21.143q-2.857 13.714 4.571 25.429t21.143 14.571q34.286 7.429 68-3.143t57.714-37.429zM954.286 764q49.714-54.857 64.286-127.143t-7.714-138q-5.143-15.429-19.429-22.857t-29.714-2.286-22.857 19.429-2.857 29.714q16 46.857 5.714 98.286t-45.714 90.286q-35.429 39.429-84.571 54.571t-98.857 4.857q-16-3.429-29.714 5.429t-17.143 24.857 5.429 29.429 24.857 16.857q70.286 14.857 139.429-6.571t118.857-76.857z" />
<glyph unicode="&#xe601;" glyph-name="wechat" horiz-adv-x="1170" d="M331.429 687.428q0 23.429-14.286 37.714t-37.714 14.286q-24.571 0-43.429-14.571t-18.857-37.429q0-22.286 18.857-36.857t43.429-14.571q23.429 0 37.714 14t14.286 37.429zM756 397.714q0 16-14.571 28.571t-37.429 12.571q-15.429 0-28.286-12.857t-12.857-28.286q0-16 12.857-28.857t28.286-12.857q22.857 0 37.429 12.571t14.571 29.143zM621.143 687.428q0 23.429-14 37.714t-37.429 14.286q-24.571 0-43.429-14.571t-18.857-37.429q0-22.286 18.857-36.857t43.429-14.571q23.429 0 37.429 14t14 37.429zM984 397.714q0 16-14.857 28.571t-37.143 12.571q-15.429 0-28.286-12.857t-12.857-28.286q0-16 12.857-28.857t28.286-12.857q22.286 0 37.143 12.571t14.857 29.143zM832 624.571q-17.714 2.286-40 2.286-96.571 0-177.714-44t-127.714-119.143-46.571-164.286q0-44.571 13.143-86.857-20-1.714-38.857-1.714-14.857 0-28.571 0.857t-31.429 3.714-25.429 4-31.143 6-28.571 6l-144.571-72.571 41.143 124.571q-165.714 116-165.714 280 0 96.571 55.714 177.714t150.857 127.714 207.714 46.571q100.571 0 190-37.714t149.714-104.286 78-148.857zM1170.286 304q0-66.857-39.143-127.714t-106-110.571l31.429-103.429-113.714 62.286q-85.714-21.143-124.571-21.143-96.571 0-177.714 40.286t-127.714 109.429-46.571 150.857 46.571 150.857 127.714 109.429 177.714 40.286q92 0 173.143-40.286t130-109.714 48.857-150.571z" />
<glyph unicode="&#xe602;" glyph-name="firim" horiz-adv-x="3319" d="M29.832 54.664h88.231v439.257h-100.755v128.307h100.755v75.102c0 75.909 21.896 134.407 65.689 175.493 43.833 41.086 105.36 61.649 184.623 61.649 15.432 0 31.188-1.172 47.226-3.434 16.079-2.303 33.693-5.535 52.882-9.696l-15.634-135.781c-10.019 1.656-19.715 3.111-29.087 4.363-9.413 1.252-20.361 1.858-32.844 1.858-29.653 0-52.074-8.12-67.305-24.401-15.23-16.24-22.825-39.631-22.825-70.052v-75.102h134.528v-128.307h-134.528v-439.257h88.231v-109.521h-359.186v109.521zM491.026 54.664h88.231v438.651h-97.604v128.913h280.328v-567.564h87.585v-109.521h-358.54v109.521zM579.257 921.341h182.724v-137.033h-182.724v137.033zM923.415 54.664h87.625v438.651h-96.998v128.913h267.198l8.12-98.896c15.836 35.066 36.278 62.376 61.325 82.010 25.047 19.593 54.013 29.41 86.979 29.41 9.615 0 19.715-0.768 30.34-2.222 10.665-1.454 19.513-3.232 26.623-5.292l-19.432-166.443-75.061 1.858c-26.704 0-48.842-5.211-66.335-15.634-17.533-10.423-30.865-25.249-40.076-44.439v-347.915h87.625v-109.521h-357.934v109.521zM1411.11 127.866h182.724v-182.724h-182.724v182.724zM1720.485 54.664h88.231v438.651h-97.604v128.913h280.328v-567.564h87.585v-109.521h-358.54v109.521zM1808.716 921.341h182.724v-137.033h-182.724v137.033zM2132.513 493.315v128.913h267.198l7.514-89.484c21.694 32.521 48.883 57.649 81.646 75.384s70.617 26.623 113.561 26.623c43.388 0 80.515-9.615 111.42-28.804 30.865-19.189 54.215-48.196 70.052-86.979 20.886 36.319 47.994 64.638 81.363 85.12 33.369 20.401 72.597 30.663 117.642 30.663 66.739 0 119.419-23.068 158-69.163s57.892-116.308 57.892-210.559v-300.366h88.231v-109.521h-349.814v109.521h78.859v300.972c0 51.307-8.363 86.979-25.047 107.017s-41.49 30.016-74.455 30.016c-25.855 0-48.277-5.737-67.264-17.21s-34.097-27.431-45.368-47.873c0-7.918 0.202-14.665 0.646-20.321 0.404-5.615 0.606-11.352 0.606-17.21v-335.392h73.849v-109.521h-329.776v109.521h73.849v300.972c0 50.054-8.363 85.444-25.047 106.087s-41.732 30.946-75.102 30.946c-24.603 0-46.216-4.686-64.759-14.059s-33.895-22.623-45.974-39.752v-384.193h78.818v-109.521h-349.168v109.521h88.231v438.651h-97.604z" />
<glyph unicode="&#xe603;" glyph-name="bug" d="M736.976 433.52l-4.665 58.507 183.358 158.050c15.124 13.045 18.088 36.727 9.566 55.915l-98.845 223.053c-8.943 20.249-29.473 27.722-45.877 16.697s-22.467-36.39-13.524-56.639l85.102-192.050-127.527-109.928c-6.669 63.944-23.073 99.846-50.189 121.323-8.488 6.733-17.448 11.547-27.031 14.997v0.067c0.522 86.801-33.97 143.456-78.483 169.192-34.93 20.198-76.597 20.568-111.729 0.842-44.951-25.248-80.286-81.92-80.639-169.697v-0.404c-9.583-3.45-18.543-8.264-27.031-14.997-27.132-21.477-43.52-57.396-50.189-121.323l-125.59 108.245 100.041 191.090c10.105 19.424 5.541 45.294-10.206 57.766s-36.699 6.834-46.804-12.607l-116.967-223.424c-10.021-19.104-7.242-44.638 8.438-58.153l183.358-158.050-4.665-58.507-178.676-154.010c-13.878-11.967-17.549-33.31-11.436-51.808l90.643-274.659c7.023-21.427 26.796-31.761 44.16-23.076s25.734 33.074 18.695 54.501l-81.111 245.793 109.001 93.954-2.678-33.546c-8.674-108.632 62.029-180.15 138.272-208.528 69.945-26.039 152.285-24.591 220.832 7.339 71.646 33.36 122.037 98.533 114.256 195.904l-3.099 38.831 108.782-93.769-73.414-214.352c-7.242-21.242 0.825-45.715 18.038-54.669s37.035 1.010 44.294 22.268l83.923 245.019c6.265 17.825 1.735 39.235-11.671 50.798l-178.71 154.044zM485.24 817.266c17.398 9.762 37.625 9.847 54.972-0.185 21.153-12.237 37.81-40.463 39.376-85.067-25.044 0.168-48.269-7.557-67.671-29.54-19.351 21.932-42.56 29.725-67.587 29.54 2.088 44.89 19.335 73.151 40.909 85.252v0zM610.679 167.698c-55.056-25.635-121.515-26.257-177.615-5.369-51.637 19.222-91.283 58.17-90.576 116.273l22.956 287.468c3.419 42.904 10.055 63.641 20.615 72.006 40.151 31.795 91.906 11.614 91.906-43.594v-176.598c0-23.144 15.208-41.894 33.953-41.894s33.953 18.767 33.953 41.894v176.026c0 60.695 60.277 68.118 91.906 44.15 10.695-8.096 17.179-29.102 20.615-72.006l23.073-288.882c4.143-52.212-26.947-89.056-70.787-109.473v0z" />
<glyph unicode="&#xe604;" glyph-name="ion" d="M966.125 701.182c-17.14 29.737-56.664 65.192-147.481 65.192-69.754 0-157.841-21.076-251.387-58.579 25.625-12.586 51.164-25.812 76.576-40.489 7.888-4.565 15.477-9.77 23.322-14.506 56.878 17.962 109.278 28.287 151.531 28.287 37.989 0 65.49-8.405 73.634-22.527 26.392-45.737-85.402-202.488-313.978-334.535-135.969-78.546-278.887-127.355-372.944-127.355-37.989 0-65.49 8.405-73.634 22.442-17.524 30.463 26.392 110.118 124.883 198.818-0.213 6.954-0.426 13.951-0.426 20.906 0 31.103 1.407 62.035 3.496 92.796-154.26-118.822-257.228-258.848-201.757-355.185 17.14-29.695 56.664-65.107 147.438-65.107 109.79 0 265.116 51.881 415.581 138.746 225.549 130.341 416.562 327.154 345.145 451.096v0zM186.298 527.579c-48.947 58.963-67.707 107.516-54.234 130.725 8.613 15.103 37.478 24.063 77.002 24.063 20.466 0 43.745-2.688 68.304-7.082 5.543 29.055 12.407 56.787 20.167 83.282-31.722 5.973-61.397 9.13-88.429 9.13-92.863 0-133.283-36.265-150.849-66.728-37.222-64.595-4.861-148.175 65.831-231.841 19.144 19.797 39.78 39.337 62.207 58.451v0zM711.754 468.189c24.346 20.351 45.28 39.892 63.060 58.28-46.858 37.161-98.235 72.573-152.341 103.889-53.765 31.060-108.212 57.427-161.082 78.631-7.12-24.404-13.644-52.734-19.187-84.519 45.366-18.858 91.882-41.598 137.674-68.008 49.97-28.927 93.673-58.75 131.876-88.274v0zM899.995 408.544c-19.229-19.754-39.993-39.294-62.378-58.408 48.947-59.006 67.665-107.558 54.191-130.768-8.613-15.061-37.392-24.063-76.917-24.063-20.551 0-43.703 2.688-68.304 7.082-5.5-29.012-12.194-56.83-19.954-83.325 31.551-5.93 61.269-9.088 88.216-9.088 92.82 0 133.24 36.265 150.721 66.728 37.435 64.552 5.031 148.132-65.575 231.841v0zM394.237 283.621c-6.268 47.102-10.148 98.897-10.148 155.215 0 256.501 77.002 426.649 127.91 426.649 23.877 0 53.467-37.801 78.153-104.017 28.14 10.112 55.428 18.261 82.161 25.258-35.858 98.087-89.623 164.132-160.314 164.132-139.934 0-213.184-257.568-213.184-511.979 0-61.693 4.434-123.515 12.919-181.88 26.264 6.954 53.68 15.615 82.502 26.623v0zM614.329 198.035c-26.946-116.518-69.882-185.848-102.328-185.848-23.962 0-53.296 38.228-77.983 104.444-28.098-10.069-55.513-18.773-82.076-25.727 35.73-98.001 89.281-164.046 160.059-164.046 105.91 0 173.574 147.706 200.222 329.842-22.939-15.103-46.090-29.78-70.010-43.561-9.252-5.333-18.547-10.154-27.884-15.103v0zM469.363 438.836c0-23.551 19.059-42.665 42.637-42.665s42.637 19.114 42.637 42.665c0 23.551-19.059 42.665-42.637 42.665s-42.637-19.114-42.637-42.665v0z" />
<glyph unicode="&#xe606;" glyph-name="angle-right" d="M678.4 438.857l-365.619 379.904c-13.722 13.824-13.722 36.198 0 50.125 13.722 13.824 35.891 13.824 49.613 0l400.896-404.89c13.722-13.875 13.722-36.301 0-50.125l-400.896-404.89c-13.722-13.875-35.891-13.824-49.613 0-13.722 13.773-13.722 36.198 0 50.125l365.619 379.75z" />
<glyph unicode="&#xe607;" glyph-name="cloud-download" horiz-adv-x="1097" d="M731.429 420.571q0 8-5.143 13.143t-13.143 5.143h-128v201.143q0 7.429-5.429 12.857t-12.857 5.429h-109.714q-7.429 0-12.857-5.429t-5.429-12.857v-201.143h-128q-7.429 0-12.857-5.429t-5.429-12.857q0-8 5.143-13.143l201.143-201.143q5.143-5.143 13.143-5.143t13.143 5.143l200.571 200.571q5.714 6.857 5.714 13.714zM1097.143 292.571q0-90.857-64.286-155.143t-155.143-64.286h-621.714q-105.714 0-180.857 75.143t-75.143 180.857q0 74.286 40 137.143t107.429 94.286q-1.143 17.143-1.143 24.571 0 121.143 85.714 206.857t206.857 85.714q89.143 0 163.143-49.714t107.714-132q40.571 35.429 94.857 35.429 60.571 0 103.429-42.857t42.857-103.429q0-43.429-23.429-78.857 74.286-17.714 122-77.429t47.714-136.286z" />
<glyph unicode="&#xe608;" glyph-name="question" d="M509.091 960c-136.364 0-263.636-53.247-359.74-149.351s-149.351-224.026-149.351-359.74c0-280.519 228.571-509.091 509.091-509.091 135.714 0 263.636 53.247 359.74 149.351s149.351 224.026 149.351 359.74c0 280.519-228.571 509.091-509.091 509.091v0zM798.701 161.299c-77.273-77.273-179.87-119.481-289.61-119.481-225.974 0-409.091 183.117-409.091 409.091 0 109.091 42.208 212.338 119.481 289.61s180.519 119.481 289.61 119.481c225.974 0 409.091-183.117 409.091-409.091 0-109.091-42.208-212.338-119.481-289.61v0zM457.143 191.169h103.896v103.896h-103.896v-103.896zM519.481 731.429c-94.156 0-166.234-62.338-166.234-166.234h103.896c0 41.558 20.779 83.117 62.338 83.117s66.234-25.974 61.688-66.883c-7.792-61.688-124.026-81.169-124.026-190.26v-33.766h103.896v20.779c0 74.675 124.675 100 124.675 207.792 0 83.117-70.779 145.455-166.234 145.455v0z" />
<glyph unicode="&#xe609;" glyph-name="optimize-upload" horiz-adv-x="1146" d="M121.734 549.85l-60.867-126.508-60.867-125.315h75.189c23.869-84.737 69.221-159.925 130.089-220.793 93.091-93.091 220.793-150.378 362.816-150.378 140.83 0 269.725 57.287 361.622 150.378 26.256 26.256 48.932 53.706 68.028 84.737h-130.089c-3.58-3.58-7.161-8.354-10.741-11.935-73.995-73.995-176.634-119.347-288.821-119.347-113.38 0-214.825 45.352-288.821 119.347-41.772 41.772-73.995 91.897-94.284 147.991h59.674l-60.867 126.508-62.061 125.315zM1024 263.416l-124.121 253.016h70.415c-15.515 82.35-56.093 156.345-112.186 212.438-73.995 73.995-176.634 119.347-288.821 119.347-113.38 0-214.825-45.352-288.821-119.347-13.128-13.128-26.256-28.643-38.191-44.159h-124.121c23.869 42.965 53.706 82.35 87.124 116.96 93.091 91.897 220.793 149.184 362.816 149.184 140.83 0 269.725-57.287 361.622-150.378 75.189-75.189 127.702-175.441 144.41-285.24h75.189l-63.254-126.508-62.061-125.315zM762.629 591.622c-1.193-38.191-9.548-75.189-22.676-110.993-16.709-42.965-40.578-79.963-73.995-110.993-2.387-2.387-3.58-4.774-3.58-8.354 1.193-11.935 2.387-22.676 3.58-34.611 2.387-26.256-7.161-48.932-28.643-64.448-22.676-16.709-47.739-32.224-71.608-47.739-15.515-9.548-33.417-1.193-35.804 16.709-2.387 20.289-3.58 40.578-4.774 62.061-1.193 10.741 0 10.741-10.741 11.935-26.256 3.58-47.739 15.515-60.867 39.385-7.161 11.935-10.741 25.063-11.935 38.191 0 3.58-2.387 4.774-5.967 4.774-21.483 1.193-42.965 2.387-64.448 3.58-17.902 1.193-26.256 20.289-16.709 35.804 7.161 10.741 14.322 21.483 20.289 32.224 7.161 11.935 14.322 23.869 22.676 34.611 13.128 21.483 33.417 33.417 58.48 33.417 14.322 0 28.643-2.387 42.965-3.58 2.387 0 4.774 0 5.967 2.387 33.417 36.998 75.189 63.254 121.734 79.963 26.256 9.548 53.706 15.515 82.35 19.096 14.322 1.193 28.643 2.387 42.965-1.193 7.161-1.193 8.354-1.193 9.548-9.548s2.387-15.515 1.193-22.676v0zM682.667 496.144c0 25.063-20.289 46.545-45.352 47.739-26.256 0-47.739-17.902-48.932-47.739 0-23.869 21.483-46.545 46.545-46.545 26.256 0 46.545 20.289 47.739 46.545v0zM404.587 352.927c5.967 0 9.548-2.387 11.935-9.548 8.354-25.063 25.063-44.159 48.932-57.287 4.774-2.387 10.741-4.774 16.709-7.161 10.741-3.58 11.935-13.128 4.774-21.483-10.741-10.741-22.676-22.676-33.417-33.417-3.58-3.58-7.161-5.967-13.128-3.58-4.774 2.387-8.354 5.967-8.354 10.741 0 3.58 0 7.161 0 10.741 0 5.967 0 5.967-5.967 4.774-11.935-3.58-25.063-8.354-36.998-11.935-3.58-1.193-7.161-1.193-10.741 0-4.774 3.58-7.161 8.354-4.774 15.515 3.58 13.128 8.354 26.256 13.128 38.191 2.387 5.967 1.193 5.967-4.774 5.967-3.58 0-7.161 0-10.741 0-4.774 0-9.548 2.387-10.741 8.354-2.387 4.774-1.193 9.548 2.387 13.128 11.935 11.935 23.869 23.869 34.611 34.611 1.193 1.193 4.774 2.387 7.161 2.387v0z" />
<glyph unicode="&#xe60a;" glyph-name="console" d="M837.268 796.487h-650.345c-29.876 0-56.833-12.383-76.333-32.101l-0.209-0.191c-19.5-19.735-31.736-47.23-31.736-77.211v-495.819c0-30.215 12.236-57.702 31.736-77.411l0.209-0.2c19.5-19.735 46.466-32.101 76.333-32.101h650.363c28.825 0 55.19 11.766 74.465 30.632l1.443 1.668c19.926 19.735 32.162 47.222 32.162 77.411v495.81c0 29.998-12.236 57.476-32.162 77.211-19.292 19.718-46.466 32.301-75.925 32.301zM192.45 658.507v0l104.472-105.914-104.472-105.436 37.541-37.984 149.217 143.42-149.217 143.89-37.541-37.975zM370.161 392.704h214.54v62.464h-214.54v-62.464zM186.923 876.010h650.363c51.445 0 97.928-21.195 131.941-55.39 34.022-34.221 54.773-81.643 54.773-133.653v-495.819c0-52.027-20.752-99.449-54.773-133.853l-2.477-2.094c-33.604-32.944-79.462-53.505-129.447-53.505h-650.38c-51.236 0-98.128 21.404-131.941 55.599l-0.2 0.2-0.843 0.634c-33.187 34.221-53.939 81.417-53.939 133.036v495.81c0 52.027 20.952 99.449 54.773 133.427l0.2 0.209 0.826 0.608c33.622 33.804 80.087 54.791 131.124 54.791z" />
<glyph unicode="&#xe60b;" glyph-name="microscope" d="M876.302 206.686c-7.926 11.783-21.217 18.844-35.373 18.844h-316.58v-85.334h245.287c-55.041-79.357-145.708-127.997-245.287-127.997-164.667 0-298.657 133.974-298.657 298.665 0 129.832 83.711 239.498 199.656 280.522l83.075-237.859 82.162 28.711 26.917-77.066 80.588 28.124-26.917 77.066 78.835 27.553-154.71 443.036-83.793-29.225-34.582 99.131-80.58-28.132 34.623-99.107-77.294-26.999 43.323-124.067c-149.222-52.627-256.638-194.641-256.638-361.697 0-211.725 172.25-383.999 383.991-383.999 157.156 0 296.961 94.19 356.128 239.963 5.333 13.136 3.775 28.108-4.175 39.866zM542.843 772.288l98.503-281.957-80.539-28.075-98.462 281.941 80.499 28.091z" />
<glyph unicode="&#xe60c;" glyph-name="user-access" d="M1020.106 128.044c-12.482 126.583-117.331 199.353-290.611 199.353-28.79 0-55.402-2.17-80.399-5.972 16.847-24.433 29.329-51.6 37.479-80.929 13.045 1.093 27.705 1.623 42.92 1.623 128.744 0 199.9-40.75 207.495-120.039l3.263-75.866h83.646l-3.793 81.829zM320.477 396.937c-255.84 0-310.696-131.999-318.316-211.305l-2.162-139.401h82.552l2.717 132.891c8.688 87.994 92.351 132.538 235.208 132.538 142.319 0 225.965-44.544 234.653-131.453l2.178-133.984h84.192l-3.263 139.956c-7.595 78.767-62.459 210.758-317.761 210.758zM728.419 379.552c98.861 0 173.818 84.739 173.818 196.636 0 99.407-71.694 168.393-173.818 168.393-102.133 0-173.818-68.977-173.818-168.393-0.008-111.897 74.957-196.636 173.818-196.636zM728.419 661.474c21.195 0 90.711-5.98 90.711-84.747 0-66.269-38.564-114.067-90.711-114.067s-90.711 47.799-90.711 114.067c-0.008 78.767 69.524 84.747 90.711 84.747zM319.939 449.085c103.747 0 182.506 88.524 182.506 206.41 0.008 105.371-73.325 175.988-182.506 175.988s-182.515-70.617-182.515-175.988c0-117.869 78.221-206.41 182.515-206.41zM319.939 748.922c36.949 0 99.399-11.952 99.399-92.889 0-72.24-41.835-124.388-99.399-124.388-57.58 0-99.391 52.147-99.391 124.388-0.017 80.946 62.45 92.889 99.391 92.889z" />
<glyph unicode="&#xe60d;" glyph-name="logo-jiecao" d="M310.464 653.612h-76.405l-1.61-71.587-94.105 0.811-0.811 70.788-85.255-19.31 21.72-56.321h-73.996l5.63-69.19h94.105l4.831-19.285h41.017v20.896l85.255-0.786v-23.33l41.841-5.63 4.007 29.771h95.716v79.638h-74.807l12.869 63.536zM10.448 384.976l88.476 4.007v-147.193l73.197-23.33-5.63 174.542 134.324 12.844-4.007-80.412-24.94-14.48v-16.090l80.425-9.649 5.617 161.686-353.903-5.155 6.441-56.77zM532.465 659.241h-49.867l0.799-86.903-53.088 0.811 13.681-53.088h38.608v-102.157h-57.107l20.109-75.619 36.998 12.071v-127.883l59.529 20.933 0.799 121.442 18.487 6.441 1.61 49.069h-25.739v105.365h28.148l4.843 47.458-37.797-4.831v86.891zM783.4 520.886l18.499 114.202-157.654-3.22 17.7-111.007 121.455 0.025zM692.515 598.901l55.485 4.007v-49.069h-55.485v45.062zM684.477 418.741l7.24 76.405-107.774-4.019 12.058-86.067 88.476 13.681zM613.701 471.018l46.647 3.22v-31.381l-46.647-11.247v39.407zM747.214 426.78h94.105l10.46 81.236-119.857-9.649 15.291-71.587zM774.563 479.057l46.635 4.831-4.831-30.944h-41.829l0.025 26.113zM846.15 342.336v57.095l-105.352-12.869-1.623 27.349-42.628-8.838-0.774-24.94-86.866-5.63 15.279-52.277 71.587 4.007v-102.955l69.964 8.051-5.63 57.107 71.575-53.887 47.471 68.391-77.229 36.174 44.225 3.22zM583.943 266.717l63.536-36.187 23.33 68.379-23.33 13.668-63.536-45.861zM984.68 372.756l39.257 246.804-71.1 5.704 3.283-252.508h28.56zM971.623 314.737c-20.758 0-37.61-16.839-37.61-37.597 0-20.771 16.839-37.597 37.61-37.597 20.758 0 37.61 16.839 37.61 37.597s-16.851 37.597-37.61 37.597z" />
<glyph unicode="&#xe60e;" glyph-name="m" horiz-adv-x="1204" d="M0 498.285v134.144h278.043l7.815-93.112c22.564 33.864 50.877 60.003 84.974 78.471 34.079 18.45 73.459 27.666 118.173 27.666 45.146 0 83.77-9.988 115.91-29.948 32.121-19.977 56.428-50.14 72.92-90.507 21.702 37.762 49.907 67.279 84.651 88.549 34.726 21.27 75.542 31.906 122.413 31.906 69.452 0 124.263-23.983 164.415-71.949s60.236-121.012 60.236-219.1v-312.554h91.801v-113.951h-363.987v113.951h82.046v313.2c0 53.392-8.695 90.507-26.049 111.347-17.372 20.839-43.188 31.259-77.483 31.259-26.929 0-50.248-5.964-69.991-17.911-19.761-11.929-35.481-28.546-47.212-49.817 0-8.246 0.216-15.306 0.647-21.163s0.647-11.821 0.647-17.893v-349.004h76.836v-113.951h-343.148v113.951h76.836v313.2c0 52.098-8.695 88.89-26.049 110.358-17.372 21.486-43.421 32.229-78.129 32.229-25.618 0-48.074-4.886-67.386-14.659-19.33-9.755-35.283-23.552-47.859-41.337v-399.791h82.046v-113.951h-363.34v113.951h91.819v456.435l-101.592-0.018z" />
<glyph unicode="&#xe60f;" glyph-name="f" horiz-adv-x="485" d="M13.007 35.383h91.819v457.099h-104.825v133.479h104.825v78.129c0 79.010 22.797 139.875 68.374 182.631s109.604 64.135 192.081 64.135c16.061 0 32.445-1.204 49.17-3.575 16.707-2.389 35.050-5.749 55.027-10.096l-16.276-141.294c-10.42 1.725-20.516 3.252-30.271 4.545-9.773 1.311-21.163 1.958-34.187 1.958-30.828 0-54.146-8.461-69.991-25.384-15.845-16.941-23.768-41.247-23.768-72.938v-78.129h140.001v-133.479h-140.001v-457.099h91.819v-113.951h-373.76v113.969h-0.036z" />
<glyph unicode="&#xe610;" glyph-name="plugin" d="M896.023 950.857h-768.017c-70.571 0-127.996-57.406-127.996-128.006v-768.017c0-70.581 57.416-127.987 127.996-127.987h768.017c70.59 0 127.996 57.416 127.996 127.987v768.017c0 70.6-57.397 128.006-127.996 128.006zM938.688 54.834c0-23.53-19.135-42.656-42.665-42.656h-768.017c-23.578 0-42.665 19.135-42.665 42.656v768.017c0 23.511 19.097 42.675 42.665 42.675h768.017c23.53 0 42.665-19.173 42.665-42.675v-768.017zM725.361 353.512h-128.006v-85.331h-170.833v85.331h-127.826v298.696h-85.321v-384.008h127.996v-85.331h341.162v85.331h127.845v384.008h-84.999v-298.696h-0.019zM469.349 652.189h-85.321v-170.662h85.321v170.662zM640.020 652.189h-85.331v-170.662h85.331v170.662z" />
<glyph unicode="&#xe611;" glyph-name="launch" d="M511.987 566.845c-94.125 0-170.662-76.572-170.662-170.662 0-94.177 76.528-170.68 170.662-170.68 94.125 0 170.662 76.52 170.662 170.68 0.009 94.090-76.537 170.662-170.662 170.662zM511.987 310.808c-47.041 0-85.322 38.308-85.322 85.366s38.29 85.331 85.322 85.331c47.015 0 85.331-38.29 85.331-85.331 0-47.076-38.317-85.366-85.331-85.366zM801.83 458.613c-30.081 199.661-137.083 373.997-289.747 492.244-152.76-118.256-259.719-292.513-289.843-492.183l-222.24-190.492v-341.333l275.832 157.611c67.708-45.374 148.756-72.28 236.163-72.28 87.425 0 168.429 26.923 236.172 72.28l275.832-157.611v341.333l-222.17 190.431zM938.651 73.894l-194.078 110.876-43.917-29.374c-56.498-37.88-121.755-57.885-188.669-57.885-66.958 0-132.163 20.005-188.669 57.833l-43.917 29.462-194.078-110.928v155.046l216.586 185.659 4.702 31.39c22.796 151.033 94.971 288.203 205.472 392.675 110.404-104.472 182.588-241.668 205.323-392.727l4.746-31.424 24.131-20.65 192.377-164.922v-155.029z" />
<glyph unicode="&#xe613;" glyph-name="brace-left" horiz-adv-x="290" d="M-0.133 400.242c11.863 0 23.353-3.143 34.455-9.388 11.116-6.259 20.947-15.084 29.464-26.475 8.531-11.405 15.389-25.007 20.56-40.832 5.199-15.825 7.784-33.297 7.784-52.415v-199.725c0-23.538 3.719-44.318 11.116-62.352 7.411-18.007 16.854-33.104 28.344-45.237 11.504-12.133 24.279-21.328 38.354-27.587 14.089-6.231 28.164-9.374 42.24-9.374h77.815v66.209h-55.582c-11.116 0-20.007 2.759-26.671 8.276s-12.043 12.696-16.122 21.521c-4.065 8.825-6.844 18.954-8.337 30.346-1.479 11.419-2.226 23.003-2.226 34.751v200.836c0 25.734-3.899 47.625-11.669 65.646-7.784 18.021-16.854 32.912-27.238 44.688-10.37 11.749-20.933 20.587-31.676 26.489-10.743 5.874-19.454 9.553-26.118 11.035v3.308c6.664 0.727 15.389 3.665 26.118 8.825 10.757 5.147 21.306 13.409 31.676 24.828 10.384 11.392 19.454 26.297 27.238 44.688 7.784 18.378 11.669 41.545 11.669 69.517v199.725c0 12.49 0.747 24.444 2.226 35.863 1.493 11.392 4.272 21.685 8.337 30.895 4.079 9.182 9.457 16.538 16.122 22.070 6.664 5.517 15.555 8.276 26.671 8.276h55.582v66.209h-77.815c-14.075 0-28.151-3.129-42.24-9.374-14.075-6.259-26.851-15.454-38.354-27.587-11.49-12.133-20.933-27.216-28.344-45.237-7.397-18.034-11.116-38.814-11.116-62.352v-200.823c0-19.86-2.586-37.894-7.784-54.062-5.185-16.195-12.043-29.989-20.56-41.381-8.517-11.419-18.348-20.052-29.464-25.926-11.116-5.888-22.592-8.825-34.455-8.825z" />
<glyph unicode="&#xe614;" glyph-name="logo" horiz-adv-x="3413" d="M366.471 950.857c-82.736 0-146.966-21.255-192.689-63.803s-68.605-103.089-68.605-181.659v-77.734h-105.176v-132.781h105.176v-454.664h-92.090v-113.318h374.942v113.318h-92.090v454.664h140.463v132.781h-140.463v77.734c0 31.484 7.948 55.684 23.845 72.52s39.301 25.235 70.211 25.235c13.087 0 24.488-0.637 34.283-1.95 9.795-1.274 19.911-2.826 30.389-4.537l16.338 140.543c-20.032 4.299-38.417 7.642-55.198 10.030-16.78 2.428-33.239 3.622-49.337 3.622v0zM777.341 627.66h-292.647v-133.418h101.885v-454.028h-92.090v-113.318h374.299v113.318h-91.447v587.446zM777.341 937.245h-190.722v-141.856h190.722v141.856zM1378.292 640.596c-34.403 0-64.671-10.15-90.805-30.449s-47.49-48.599-64.029-84.859l-8.47 102.332h-278.918v-133.418h101.242v-454.028h-91.447v-113.318h373.657v113.318h-91.447v360.094c9.594 19.861 23.524 35.185 41.83 45.972s41.348 16.2 69.248 16.2l78.401-1.95 20.273 172.265c-7.427 2.149-16.66 3.98-27.779 5.493-11.16 1.592-21.758 2.348-31.754 2.348v0zM1454.966-73.103h190.763v189.142h-190.763v-189.142zM2060.734 937.245h-190.763v-141.856h190.763v141.856zM2060.734 627.66h-292.647v-133.418h101.885v-454.028h-92.090v-113.318h374.299v113.318h-91.447v587.446zM3321.083 40.215v310.898c0 97.556-20.152 170.235-60.416 217.919-40.304 47.723-95.261 71.565-164.95 71.565-47.008 0-87.955-10.587-122.799-31.723-34.845-21.175-63.146-50.509-84.904-88.083-16.539 40.161-40.947 70.172-73.142 90.033-32.235 19.861-70.974 29.772-116.256 29.772-44.84 0-84.382-9.155-118.544-27.504-34.202-18.389-62.624-44.38-85.225-78.053l-7.828 92.621h-278.918v-133.418h101.885v-454.028h-92.090v-113.318h364.504v113.318h-82.294v397.667c12.605 17.712 28.622 31.444 48.012 41.156s41.91 14.568 67.602 14.568c34.845 0 60.978-10.707 78.401-32.081s26.134-57.953 26.134-109.775v-311.534h-77.076v-113.318h344.232v113.318h-77.076v347.158c0 6.050-0.241 11.981-0.642 17.792-0.442 5.811-0.642 12.856-0.642 21.056 11.762 21.135 27.539 37.653 47.37 49.554 19.791 11.861 43.195 17.792 70.211 17.792 34.403 0 60.296-10.349 77.718-31.086s26.134-57.634 26.134-110.731v-311.534h-82.294v-113.318h365.147v113.318h-92.25z" />
<glyph unicode="&#xe615;" glyph-name="thumbsup" d="M939.442 565.725c-118.704 17.408-164.755 17.378-242.188 16.42-53.475-0.659 31.622 110.863 31.622 241.261 0 130.338-110.588 135.522-144.796 122.788-3.757-202.159-122.011-275.509-148.523-332.198-73.435-164.496-190.305-135.372-190.305-135.372 0.090 0.12-116.87 0-146.088 0-54.497 0-167.009-205.965-11.753-551.766h175.306c-28.767 72.69-51.552 156.526-59.097 215.463-8.567 80.33-3.096 160.182 12.895 206.384 1.232-96.48 41.241-270.265 108.003-339.359 121.92-18.427 204.974-72.81 349.409-72.81 148.763 0 224.332 56.899 243.27 95.222 29.338 59.326 90.839 373.098 96.43 407.106 10.431 63.042-24.769 119.582-74.186 126.863v0z" />
<glyph unicode="&#xe616;" glyph-name="webhooks" d="M739.039 277.509c0-22.242-18.116-40.344-40.431-40.344h-427.725c-27.44 0-54.323-9.413-75.761-26.532l-114.286-91.237v642.179c0 22.242 18.125 40.336 40.431 40.336h577.35c22.306 0 40.431-18.103 40.431-40.336v-98.295h80.853v98.295c0 66.733-54.399 121.016-121.275 121.016h-577.35c-66.876 0-121.275-54.283-121.275-121.016v-726.114c0-15.503 8.919-29.644 22.896-36.365 5.564-2.658 11.566-3.971 17.526-3.971 9.003 0 17.956 3.012 25.265 8.841l179.973 143.67c7.149 5.712 16.11 8.841 25.231 8.841h427.725c66.876 0 121.275 54.283 121.275 121.016v98.295h-80.853v-98.278zM773.484 569.543c-31.132 0-56.372-25.186-56.372-56.243s25.24-56.252 56.372-56.252c31.132 0 56.372 25.186 56.372 56.252s-25.24 56.243-56.372 56.243v0zM967.628 569.543c-31.132 0-56.372-25.186-56.372-56.243s25.24-56.252 56.372-56.252c31.132 0 56.372 25.186 56.372 56.252s-25.24 56.243-56.372 56.243v0zM522.968 513.3c0-31.066 25.24-56.252 56.372-56.252s56.372 25.186 56.372 56.252c0 31.066-25.24 56.243-56.372 56.243s-56.372-25.177-56.372-56.243v0z" />
<glyph unicode="&#xe617;" glyph-name="brace-right" horiz-adv-x="290" d="M290.133 400.242c-11.863 0-23.353-3.143-34.455-9.388-11.116-6.259-20.947-15.084-29.464-26.475-8.531-11.405-15.389-25.007-20.56-40.832-5.199-15.825-7.784-33.297-7.784-52.415v-199.725c0-23.538-3.719-44.318-11.116-62.352-7.411-18.007-16.854-33.104-28.344-45.237-11.504-12.133-24.279-21.328-38.354-27.587-14.089-6.231-28.164-9.374-42.24-9.374h-77.815v66.209h55.582c11.116 0 20.007 2.759 26.671 8.276s12.043 12.696 16.122 21.521c4.065 8.825 6.844 18.954 8.337 30.346 1.479 11.419 2.226 23.003 2.226 34.751v200.836c0 25.734 3.899 47.625 11.669 65.646 7.784 18.021 16.854 32.912 27.238 44.688 10.37 11.749 20.933 20.587 31.676 26.489 10.743 5.874 19.454 9.553 26.118 11.035v3.308c-6.664 0.727-15.389 3.665-26.118 8.825-10.757 5.147-21.306 13.409-31.676 24.828-10.384 11.392-19.454 26.297-27.238 44.688-7.784 18.378-11.669 41.545-11.669 69.517v199.725c0 12.49-0.747 24.444-2.226 35.863-1.493 11.392-4.272 21.685-8.337 30.895-4.079 9.182-9.457 16.538-16.122 22.070-6.664 5.517-15.555 8.276-26.671 8.276h-55.582v66.209h77.815c14.075 0 28.151-3.129 42.24-9.374 14.075-6.259 26.851-15.454 38.354-27.587 11.49-12.133 20.933-27.216 28.344-45.237 7.397-18.034 11.116-38.814 11.116-62.352v-200.823c0-19.86 2.586-37.894 7.784-54.062 5.185-16.195 12.043-29.989 20.56-41.381 8.517-11.419 18.348-20.052 29.464-25.926 11.116-5.888 22.592-8.825 34.455-8.825z" />
<glyph unicode="&#xe618;" glyph-name="comma-eye" horiz-adv-x="512" d="M487.893 422.26h-219.349c0 76.715 18.517 142.592 55.765 197.76 37.12 55.125 91.691 95.872 163.627 122.283v208.555c-62.379-19.243-120.491-44.373-174.421-75.52-53.931-31.189-101.291-68.949-142.037-113.237-40.832-44.373-73.173-95.317-97.109-152.875-23.979-57.515-35.968-119.893-35.968-186.965v-485.461h449.536v485.461h-0.043z" />
<glyph unicode="&#xe619;" glyph-name="mouth" horiz-adv-x="3910" d="M1953.699 428.338c-356.724 0-695.948 44.591-1017.204 133.772-321.35 89.181-633.484 218.764-936.495 388.655v-394.985c297.332-195.398 611.607-346.205 942.918-452.422s668.207-159.279 1010.874-159.279c203.869 0 394.985 16.291 573.44 48.873 178.362 32.675 347.508 76.521 507.532 131.724 160.023 55.296 312.879 119.622 458.752 193.35 145.78 73.635 286.72 152.948 422.633 237.847v394.985c-305.897-178.548-620.265-310.086-943.104-395.078-322.839-84.899-662.621-127.441-1019.345-127.441z" />
<glyph unicode="&#xe61a;" glyph-name="brace-hor" horiz-adv-x="3614" d="M1670.771-73.143c0 41.87-11.093 82.422-33.133 121.607-22.089 39.234-53.236 73.931-93.442 103.991-40.254 30.109-88.259 54.313-144.111 72.564-55.852 18.348-117.517 27.474-184.995 27.474h-704.91c-83.076 0-156.415 13.127-220.066 39.234-63.554 26.156-116.839 59.486-159.661 100.038-42.822 40.601-75.277 85.691-97.366 135.369-21.992 49.726-33.085 99.404-33.085 149.081v274.641h233.678v-196.172c0-39.234 9.737-70.612 29.21-94.133s44.808-42.504 75.955-56.9c31.147-14.347 66.897-24.156 107.103-29.426 40.303-5.222 81.187-7.857 122.652-7.857h708.834c90.826 0 168.089-13.761 231.692-41.186 63.603-27.474 116.161-59.486 157.723-96.134 41.465-36.599 72.661-73.882 93.491-111.799 20.733-37.917 33.715-68.66 38.946-92.181h11.674c2.567 23.521 12.934 54.313 31.147 92.181 18.165 37.966 47.327 75.199 87.629 111.799 40.206 36.648 92.813 68.66 157.723 96.134 64.862 27.474 146.63 41.186 245.353 41.186h704.91c44.081 0 86.273 2.635 126.576 7.857 40.206 5.27 76.536 15.079 109.040 29.426 32.407 14.396 58.371 33.379 77.893 56.9 19.473 23.521 29.21 54.899 29.21 94.133v196.172h233.678v-274.641c0-49.677-11.044-99.355-33.085-149.081-22.089-49.677-54.544-94.768-97.366-135.369-42.822-40.552-96.058-73.882-159.661-100.038-63.651-26.108-136.991-39.234-220.066-39.234h-708.785c-70.094 0-133.745-9.125-190.808-27.474-57.16-18.3-105.843-42.504-146.049-72.564-40.303-30.060-70.772-64.756-91.505-103.991-20.781-39.234-31.147-79.738-31.147-121.607z" />
<glyph unicode="&#xe61b;" glyph-name="brace-right-b" horiz-adv-x="348" d="M347.629 388.879c-7.393 0-17.022-1.298-28.876-3.882-11.843-2.607-23.326-7.219-34.427-13.882-11.113-6.663-20.719-15.933-28.876-27.764-8.135-11.854-12.213-26.652-12.213-44.427v-219.91c0-25.91-5.168-48.483-15.551-67.753-10.359-19.247-22.944-35.157-37.764-47.753-14.809-12.584-30.348-21.831-46.652-27.764-16.281-5.921-30.348-8.888-42.202-8.888h-101.067v99.955h61.090c14.067 0 25.18 2.41 33.314 7.219 8.158 4.82 14.438 11.113 18.876 18.888s7.219 16.292 8.332 25.539c1.112 9.27 1.669 17.961 1.669 26.095v209.91c0 26.652 4.438 47.926 13.326 63.859 8.888 15.91 19.432 28.135 31.657 36.652 12.213 8.505 24.821 14.241 37.764 17.219 12.967 2.955 23.882 4.809 32.758 5.55v2.225c-8.888 0.73-19.803 3.14-32.758 7.219-12.943 4.056-25.539 10.359-37.764 18.876-12.213 8.505-22.77 20.162-31.657 34.983-8.888 14.797-13.326 33.314-13.326 55.528v216.573c0 8.135-0.556 16.837-1.669 26.107-1.112 9.247-3.882 17.764-8.332 25.539-4.438 7.775-10.719 14.056-18.876 18.876-8.146 4.82-19.247 7.231-33.314 7.231h-61.090v99.955h101.067c11.854 0 25.922-2.966 42.202-8.888 16.292-5.933 31.843-15.18 46.652-27.764 14.821-12.596 27.405-28.517 37.764-47.753 10.383-19.259 15.551-41.843 15.551-67.753v-228.786c0-16.292 4.079-29.618 12.213-39.989 8.158-10.383 17.764-18.702 28.876-24.983 11.113-6.304 22.596-10.556 34.427-12.77 11.854-2.225 21.483-3.337 28.876-3.337v-99.955z" />
<glyph unicode="&#xe61c;" glyph-name="brace-left-b" horiz-adv-x="348" d="M0.371 388.879c7.393 0 17.022-1.298 28.876-3.882 11.843-2.607 23.326-7.219 34.427-13.882 11.113-6.663 20.719-15.933 28.876-27.764 8.135-11.854 12.213-26.652 12.213-44.427v-219.91c0-25.91 5.168-48.483 15.551-67.753 10.359-19.247 22.944-35.157 37.764-47.753 14.809-12.584 30.348-21.831 46.652-27.764 16.281-5.921 30.348-8.888 42.202-8.888h101.067v99.955h-61.090c-14.067 0-25.18 2.41-33.314 7.219-8.158 4.82-14.438 11.113-18.876 18.888s-7.219 16.292-8.332 25.539c-1.112 9.27-1.669 17.961-1.669 26.095v209.91c0 26.652-4.438 47.926-13.326 63.859-8.888 15.91-19.432 28.135-31.657 36.652-12.213 8.505-24.821 14.241-37.764 17.219-12.967 2.955-23.882 4.809-32.758 5.55v2.225c8.888 0.73 19.803 3.14 32.758 7.219 12.943 4.056 25.539 10.359 37.764 18.876 12.213 8.505 22.77 20.162 31.657 34.983 8.888 14.797 13.326 33.314 13.326 55.528v216.573c0 8.135 0.556 16.837 1.669 26.107 1.112 9.247 3.882 17.764 8.332 25.539 4.438 7.775 10.719 14.056 18.876 18.876 8.146 4.82 19.247 7.231 33.314 7.231h61.090v99.955h-101.067c-11.854 0-25.922-2.966-42.202-8.888-16.292-5.933-31.843-15.18-46.652-27.764-14.821-12.596-27.405-28.517-37.764-47.753-10.383-19.259-15.551-41.843-15.551-67.753v-228.786c0-16.292-4.079-29.618-12.213-39.989-8.158-10.383-17.764-18.702-28.876-24.983-11.113-6.304-22.596-10.556-34.427-12.77-11.854-2.225-21.483-3.337-28.876-3.337v-99.955z" />
<glyph unicode="&#xe61d;" glyph-name="brace-box" horiz-adv-x="4461" d="M0 950.788v-243.783c0-136.51 40.665-242.171 121.892-316.912 81.295-74.81 232.425-112.146 453.422-112.146h775.206c97.527 0 193.407-4.873 287.674-14.619 94.301-9.746 177.965-27.659 251.093-53.636 73.128-26.046 132.461-61.769 177.965-107.273 45.538-45.572 69.937-104.047 73.128-175.528h185.274c3.26 71.447 27.659 129.956 73.128 175.528 45.572 45.469 104.836 81.192 177.965 107.273 73.128 25.977 156.86 43.891 251.093 53.636 94.301 9.746 190.147 14.619 287.674 14.619h770.334c220.997 0 372.127 37.336 453.422 112.146 81.192 74.741 121.892 180.401 121.892 316.912v243.783h-160.909v-234.038c0-100.787-37.405-168.219-112.146-202.329-74.81-34.145-204.766-51.2-390.040-51.2h-765.461c-162.488 0-293.302-14.619-392.476-43.891-99.106-29.238-177.107-63.382-234.038-102.4-56.828-39.018-98.282-77.246-124.328-114.582-25.977-37.405-47.082-64.206-63.382-80.438-9.746 16.232-25.977 43.033-48.764 80.438-22.717 37.336-61.701 75.565-117.019 114.582-55.215 39.018-132.392 73.128-231.601 102.4-99.106 29.238-229.92 43.891-392.476 43.891h-765.461c-185.274 0-315.23 17.055-390.040 51.2-74.741 34.145-112.146 101.542-112.146 202.329v234.038h-160.875z" />
<glyph unicode="&#xe61e;" glyph-name="menu" d="M964.474 509.557h-904.947c-39.026 0-42.42-31.602-42.42-70.7s3.394-70.7 42.42-70.7h904.947c39.026 0 42.42 31.602 42.42 70.7s-3.394 70.7-42.42 70.7zM964.474 226.759h-904.947c-39.026 0-42.42-31.602-42.42-70.7s3.394-70.7 42.42-70.7h904.947c39.026 0 42.42 31.602 42.42 70.7s-3.394 70.7-42.42 70.7zM59.526 650.955h904.947c39.026 0 42.42 31.602 42.42 70.7s-3.394 70.7-42.42 70.7h-904.947c-39.026 0-42.42-31.602-42.42-70.7s3.394-70.7 42.42-70.7z" />
<glyph unicode="&#xe61f;" glyph-name="app" d="M1024 424.202l-252.439 0.718c-103.426 229.090-209.456 464.181-219.512 486.393-20.011 44.423-60.289 43.961-80.097 0-9.955-21.955-115.627-256.226-218.849-484.956l-252.899 0.667-0.204-90.384 212.366-0.564c-87.448-193.747-163.205-361.64-163.205-361.64l81.934-37.344 179.898 398.727 402.474-1.129 179.439-397.599 81.934 37.344c0 0-75.349 166.919-162.49 359.998l211.396-0.616 0.255 90.384zM351.73 426.1l160.244 355.125 160.704-356.048-320.948 0.923z" />
<glyph unicode="&#xe620;" glyph-name="box" d="M830.255 925.257h-636.509l-193.745-264.145v-685.382h1024v685.382l-193.745 264.145zM930.909 68.821h-837.818v502.691h297.891v93.091h-272.873l122.764 167.564h224.582v-260.655h93.091v260.655h224.582l122.764-167.564h-272.873v-93.091h297.891v-502.691z" />
<glyph unicode="&#xe621;" glyph-name="combo" d="M852.827 686.599h-126.117v98.634c0 100.616-56.584 165.624-144.12 165.624h-414.588c-92.655 0-168.002-74.323-168.002-165.624v-406.264c0-88.262 72.242-154.822 168.002-154.822h96.256v-115.448c0-93.481 84.563-181.843 174.014-181.843h414.555c97.974 0 171.173 96.025 171.173 181.843v406.264c0 93.052-78.386 171.636-171.173 171.636v0zM168.002 323.244c-34.287 0-68.905 17.243-68.905 55.725v406.264c0 36.699 30.918 66.527 68.905 66.527h414.588c11.132 0 45.023 0 45.023-66.527v-98.634h-189.341c-92.689 0-174.014-80.202-174.014-171.636v-191.719h-96.256zM627.613 587.502v-208.533c0-51.464-21.273-55.725-45.023-55.725h-219.235v191.719c0 36.633 37.095 72.539 74.917 72.539h189.341zM924.903 108.7c0-40.2-37.029-82.746-72.076-82.746h-414.555c-35.708 0-74.917 43.305-74.917 82.746v115.448h219.235c88.89 0 144.12 59.326 144.12 154.822v208.533h126.117c37.062 0 72.076-35.245 72.076-72.539v-406.264z" />
<glyph unicode="&#xe622;" glyph-name="device" d="M727.87 950.857h-431.741c-64.649 0-116.93-53.143-116.93-118.857v-786.286c0-65.714 52.281-118.857 116.93-118.857h431.741c64.649 0 116.93 53.143 116.93 118.857v786.286c0 65.714-52.281 118.857-116.93 118.857v0zM296.13 859.428h431.741c14.616 0 26.984-12.571 26.984-27.429v-100.571h-485.708v100.571c0 14.857 12.368 27.429 26.984 27.429v0zM754.854 640v-365.714h-485.708v365.714h485.708zM727.87 18.286h-431.741c-14.616 0-26.984 12.571-26.984 27.429v137.143h485.708v-137.143c0-14.857-12.368-27.429-26.984-27.429v0zM512 146.286c-24.735 0-44.973-20.571-44.973-45.714s20.238-45.714 44.973-45.714c24.735 0 44.973 20.571 44.973 45.714s-20.238 45.714-44.973 45.714v0z" />
<glyph unicode="&#xe623;" glyph-name="face" d="M763.454 289.24c-28.578-21.843-58.55-38.989-89.91-51.472-31.355-12.478-64.904-20.814-100.641-25.005s-70.229-3.624-103.44 1.723c-3.898 0.628-7.786 1.328-11.668 2.068v73.337c0 27.968-3.789 51.144-11.352 69.513-7.568 18.397-16.388 33.292-26.482 44.691-10.089 11.416-20.352 19.692-30.81 24.833-10.443 5.152-18.914 8.098-25.399 8.826v3.313c6.484 1.478 14.956 5.147 25.399 11.027 10.459 5.897 20.722 14.734 30.81 26.484 10.094 11.777 18.914 26.673 26.482 44.691 7.562 18.036 11.352 39.912 11.352 65.656v200.836c0 11.749 0.724 23.338 2.156 34.754 1.454 11.394 4.16 21.515 8.107 30.341 3.974 8.832 9.196 16.007 15.68 21.526 6.484 5.513 15.13 8.27 25.943 8.27h54.042v66.206h-75.668c-13.682 0-27.375-3.14-41.073-9.376-13.682-6.258-26.112-15.451-37.295-27.59-11.167-12.133-20.352-27.223-27.56-45.236-7.198-18.036-10.813-38.811-10.813-62.349v-199.724c0-19.119-2.515-36.593-7.562-52.411-5.036-15.818-11.711-29.424-19.998-40.829-8.276-11.399-17.836-20.225-28.649-26.484-10.807-6.242-21.974-9.382-33.505-9.382v-75.032c11.531 0 22.698-2.935 33.505-8.832 10.813-5.875 20.373-14.517 28.649-25.933 8.287-11.394 14.961-25.183 19.998-41.379 5.047-16.168 7.562-34.204 7.562-54.068v-29.074c0 0.006-0.093 0.039-0.136 0.061l0.136-1.234v-170.573c0-23.543 3.615-44.319 10.813-62.355 7.209-18.019 16.393-33.103 27.56-45.242 11.183-12.139 23.613-21.326 37.295-27.584 13.698-6.242 27.391-9.376 41.073-9.376h75.668v66.206h-54.042c-10.813 0-19.459 2.757-25.943 8.276s-11.706 12.878-15.68 22.065c-3.947 9.21-6.653 19.503-8.107 30.897-1.432 11.416-2.156 23.371-2.156 35.86v81.546c5.831-1.473 11.684-2.862 17.591-4.057 34.409-6.964 68.769-8.431 103.086-4.407 20.428 2.395 39.38 6.308 56.884 11.733 17.488 5.43 33.93 11.905 49.322 19.431 15.386 7.531 29.961 15.907 43.725 25.155 13.758 9.248 26.961 19.008 39.598 29.29l-4.546 40.39zM629.026 575.39c38.377 0 69.488 30.566 69.488 68.269 0 37.699-31.111 68.264-69.488 68.264-38.372 0-69.483-30.566-69.483-68.264 0-37.704 31.111-68.269 69.483-68.269z" />
<glyph unicode="&#xe624;" glyph-name="file" d="M102.4 950.857v-1024h537.387l307.413 312.296v711.704h-844.8zM853.333 278.264l-252.853-256.593h-404.213v834.37h657.067v-577.778zM496.64 97.524h93.867v189.63h187.733v94.815h-281.6v-284.444zM721.92 742.264h-394.24v-94.815h394.24v94.815zM721.92 571.598h-394.24v-94.815h394.24v94.815z" />
<glyph unicode="&#xe625;" glyph-name="msg" d="M797.538 925.257h-571.077c-124.923 0-226.462-105.769-226.462-235.897v-266.667c0-130.128 101.538-235.897 226.462-235.897h49.231v-194.872c0-20.513 11.692-39.103 30.154-47.436 6.154-2.564 12.308-3.846 19.077-3.846 12.308 0 24.615 5.128 34.462 14.103l236.923 232.051h201.231c124.923 0 226.462 105.769 226.462 235.897v266.667c0 130.128-101.538 235.897-226.462 235.897v0zM921.6 427.225c0-72.343-56.686-130.846-126.781-130.846h-238.324l-181.029-179.913v179.913h-146.286c-70.095 0-126.781 58.503-126.781 130.846v261.692c0 72.343 56.686 130.846 126.781 130.846h565.638c70.095 0 126.781-58.503 126.781-130.846v-261.692z" />
<glyph unicode="&#xe626;" glyph-name="pen" d="M989.229 783.832l-131.55 131.525c-22.601 22.697-52.736 35.5-85.188 35.5-31.873 0-62.587-12.803-85.188-35.5l-111.267-111.738 301.347-303.206 111.846 111.738c22.601 23.279 34.771 53.541 34.771 85.549 0 32.59-12.17 62.853-34.771 86.131v0zM923.744 678.496l-46.361-46.558-170.377 171.681 45.782 45.976c5.216 5.238 12.17 8.148 19.703 8.148s14.488-2.91 19.703-8.148l131.55-132.107c5.216-5.238 7.534-12.221 7.534-19.787 0-6.984-2.318-14.549-7.534-19.205v0zM405.080 157.633l-191.239-64.599-44.043 43.648 64.326 192.050 354.662 356.165-65.485 65.762-369.729-371.878-153.571-456.264 454.918 153.64 370.309 371.878-65.485 65.762-354.662-356.165zM304.244 227.47c8.693-9.312 20.862-13.967 32.453-13.967 12.17 0 23.76 4.656 33.032 13.967l337.277 338.706-65.485 65.762-337.277-338.706c-9.272-9.312-13.908-20.951-13.908-33.172 0-11.639 4.636-23.861 13.908-32.59v0z" />
<glyph unicode="&#xe627;" glyph-name="ipa" d="M69.391 275.017h-59.632v61.146h59.632v-61.146zM142.039 313.158l49.341 8.476v233.989l-49.341 8.476v38.444h108.973v-280.908l49.341-8.476v-38.141h-158.314v38.141zM251.012 686.39h-59.632v60.844h59.632v-60.844zM338.494 187.535l49.341 8.476v359.611l-49.341 8.476v38.444h100.497l5.449-39.956c10.897 14.933 24.165 26.335 39.806 34.206s33.751 11.806 54.335 11.806c40.562 0 72.094-16.094 94.594-48.282s33.751-74.717 33.751-127.589v-6.356c0-47.221-11.3-85.312-33.903-114.27s-53.78-43.438-93.535-43.438c-20.18 0-37.888 3.38-53.124 10.141s-28.202 16.8-38.897 30.118v-112.908l49.341-8.476v-38.444h-158.314v38.444zM606.991 432.725c0 37.333-7.265 67.906-21.794 91.718s-36.123 35.718-64.779 35.718c-16.951 0-31.481-3.835-43.589-11.503s-21.895-18.162-29.362-31.482v-159.524c7.467-13.521 17.203-23.964 29.211-31.33s26.789-11.049 44.346-11.049c28.253 0 49.643 10.292 64.173 30.876s21.794 47.323 21.794 80.217v6.356zM934.818 275.017c-1.817 8.879-3.229 16.85-4.238 23.914s-1.715 14.126-2.118 21.189c-11.503-14.732-25.881-26.991-43.135-36.779s-35.668-14.682-55.244-14.682c-34.105 0-60.036 8.324-77.794 24.973s-26.638 40.108-26.638 70.379c0 31.077 12.562 55.041 37.686 71.892s59.582 25.276 103.373 25.276h61.449v38.141c0 19.171-6.054 34.356-18.162 45.556s-28.959 16.8-50.551 16.8c-14.933 0-28.101-1.917-39.503-5.751s-20.635-9.081-27.697-15.741l-6.356-34.508h-46.011v63.568c14.933 11.906 32.994 21.441 54.183 28.606s44.194 10.746 69.017 10.746c37.132 0 67.2-9.485 90.206-28.454s34.508-46.112 34.508-81.427v-157.708c0-4.238 0.050-8.374 0.151-12.411s0.353-8.073 0.756-12.108l24.217-3.33v-38.141h-78.097zM838.861 318.606c19.777 0 37.838 4.742 54.183 14.227s28.050 20.886 35.114 34.206v53.882h-63.568c-24.418 0-43.741-5.65-57.968-16.951s-21.341-25.023-21.341-41.168c0-14.327 4.439-25.276 13.318-32.844s22.299-11.351 40.259-11.351v0z" />
<glyph unicode="&#xe628;" glyph-name="lock2" d="M512 340.395c-48.356 0-87.040-40-87.040-88.615 0-30.769 15.111-57.846 38.684-73.846v-73.846h96.711v73.846c23.573 16 38.684 43.077 38.684 73.846 0 48.615-38.684 88.615-87.040 88.615v0zM831.147 536.703v89.231c0 179.077-143.253 324.923-319.147 324.923s-319.147-145.846-319.147-324.923v-89.231c-64.676-4.923-116.053-60.308-116.053-127.385v-354.462c0-70.769 56.213-128 125.724-128h618.951c69.511 0 125.724 57.231 125.724 128v354.462c0 67.077-51.378 122.462-116.053 127.385v0zM850.489 54.857c0-16-13.298-29.538-29.013-29.538h-618.951c-15.716 0-29.013 13.538-29.013 29.538v354.462c0 16 13.298 29.538 29.013 29.538h87.040v187.077c0 124.923 99.733 226.462 222.436 226.462s222.436-101.538 222.436-226.462v-88.615h-367.502v-98.462h454.542c15.716 0 29.013-13.538 29.013-29.538v-354.462z" />
<glyph unicode="&#xe629;" glyph-name="qrcode" d="M256 225.524v-85.333h-85.333v85.333h85.333zM256 780.19v-85.333h-85.333v85.333h85.333zM810.667 780.19v-85.333h-85.333v85.333h85.333zM85.333 12.19h298.667v298.667h-298.667v-298.667zM85.333 566.857h298.667v298.667h-298.667v-298.667zM640 566.857h298.667v298.667h-298.667v-298.667zM469.333 396.19v-469.333h-469.333v469.333h469.333zM810.667 12.19v-85.333h-85.333v85.333h85.333zM1024 12.19v-85.333h-85.333v85.333h85.333zM1024 396.19v-281.6h-281.6v93.867h-93.867v-281.6h-93.867v469.333h281.6v-93.867h93.867v93.867h93.867zM469.333 481.524h-469.333v469.333h469.333v-469.333zM1024 950.857v-469.333h-469.333v469.333h469.333z" />
<glyph unicode="&#xe62a;" glyph-name="rollback" d="M201.264 755.588h139.675c-34.225-33.616-72.613-71.838-96.2-94.863-80.013-80.127-117.475-164.398-117.475-266.168 0-191.568 150.775-348.598 340.4-360.11v73.68c-148.925 11.512-266.4 135.387-266.4 286.43 0 81.969 29.6 147.82 95.738 214.132 23.587 23.025 62.437 61.707 96.662 95.323v-139.992h74v265.247h-266.4v-73.68zM794.043-73.143c56.309 0 101.957 45.846 101.957 102.4s-45.648 102.4-101.957 102.4c-56.309 0-101.957-45.846-101.957-102.4s45.648-102.4 101.957-102.4zM794.043 336.457c56.309 0 101.957 45.846 101.957 102.4s-45.648 102.4-101.957 102.4c-56.309 0-101.957-45.846-101.957-102.4s45.648-102.4 101.957-102.4zM794.043 746.057c56.309 0 101.957 45.846 101.957 102.4s-45.648 102.4-101.957 102.4c-56.309 0-101.957-45.846-101.957-102.4s45.648-102.4 101.957-102.4z" />
<glyph unicode="&#xe62b;" glyph-name="eye" d="M512 822.857c-274.857 0-512-257.714-512-384s237.143-384 512-384c274.857 0 512 257.714 512 384s-237.143 384-512 384v0zM512 146.286c-236.571 0-420.571 233.143-420.571 292.571s184 292.571 420.571 292.571c236.571 0 420.571-233.143 420.571-292.571s-184-292.571-420.571-292.571v0zM626.286 496c8.571-17.143 13.714-36.571 13.714-57.143 0-70.286-57.714-128-128-128s-128 57.714-128 128c0 70.286 57.714 128 128 128v91.429c-121.143 0-219.429-98.286-219.429-219.429s98.286-219.429 219.429-219.429c121.143 0 219.429 98.286 219.429 219.429 0 35.429-8.571 68.571-23.429 98.286l-81.714-41.143z" />
<glyph unicode="&#xe62c;" glyph-name="plus" d="M512 924.309q20.101 0 34.323-14.222t14.222-34.323v-388.362h388.362q20.101 0 34.323-14.222t14.222-34.323-14.222-34.323-34.323-14.222h-388.362v-388.362q0-20.101-14.222-34.323t-34.323-14.222-34.323 14.222-14.222 34.323v388.362h-388.362q-20.101 0-34.323 14.222t-14.222 34.323 14.222 34.323 34.323 14.222h388.362v388.362q0 20.101 14.222 34.323t34.323 14.222z" />
<glyph unicode="&#xe62d;" glyph-name="chart" d="M899.122 114.541c-278.007 9.027-366.119 245.225-430.78 418.603-32.565 87.278-63.306 169.717-103.478 169.717-50.582 0-87.195-74.505-125.988-153.367-47.446-96.519-101.231-205.881-205.51-205.881-18.44 0-33.366 15.41-33.366 34.398s14.926 34.398 33.366 34.398c63.306 0 105.346 85.512 145.986 168.181 46.2 93.951 93.958 191.067 185.513 191.067 85.994 0 122.963-99.088 165.76-213.815 60.856-163.143 136.26-365.278 368.498-374.449v57.301l124.878-75.863-124.878-75.84v25.551zM899.122 317.464c-2.43-0.6-4.965-0.918-7.571-0.918-126.607 0-178.14 103.743-223.618 195.282-37.733 75.919-66.2 125.948-113.502 138.511l-29.943 70.346c1.823 0.090 3.58 0.405 5.424 0.405 107.253 0 154.337-94.798 195.888-178.404 42.311-85.156 78.85-158.716 165.75-158.716 2.606 0 5.141-0.318 7.571-0.918v34.63l124.878-75.84-124.878-75.863v51.486zM393.651 569.385c-20.242-32.036-40.282-67.737-61.128-105.022-73.995-132.284-157.831-282.216-273.923-282.216-18.583 0-33.624-15.204-33.624-33.937s15.041-33.936 33.624-33.936c155.365 0 249.467 168.257 332.496 316.718 11.096 19.864 22.281 39.819 33.489 59.117l-30.934 79.276z" />
<glyph unicode="&#xe62e;" glyph-name="idea" d="M571.475 244.65v264.276l105.018 99.31-65.928 62.345-85.764-81.103-85.764 81.103-65.928-62.345 105.018-99.31v-264.276h93.349zM793.179 854.305c-42.591 44.138-123.688 96.552-268.379 96.552s-225.788-52.414-268.379-96.552c-55.426-57.931-84.014-141.241-75.846-223.448 9.918-99.31 45.508-149.517 87.515-200.276l7.001-8.828c19.837-23.724 35.006-42.483 35.006-82.207v-94.897h93.349v94.897c0 70.621-32.089 109.241-56.009 137.379l-5.834 7.724c-35.006 42.483-60.093 78.345-67.678 154.483-2.334 22.069-4.667 96.552 51.925 155.586 43.174 45.241 110.269 67.862 198.95 67.862 89.265 0 155.776-22.621 199.534-67.862 56.593-58.483 53.676-133.517 51.342-155.586-7.001-76.138-32.672-112-67.678-154.483l-5.251-6.069c-23.921-28.69-56.593-67.31-56.593-139.034v-94.897h93.349v94.897c0 40.828 15.753 59.586 36.173 83.862l5.834 7.172c42.007 50.759 77.596 100.966 87.515 200.276 8.168 82.207-20.42 165.517-75.846 223.448v0zM310.097 85.754h429.406v88.276h-429.406v-88.276zM403.446-73.143h242.708v88.276h-242.708v-88.276z" />
<glyph unicode="&#xe62f;" glyph-name="owner" d="M512 384c151.111 0 265.481 132 265.481 307.429 0 140.571-121.481 259.429-265.481 259.429s-265.481-118.857-265.481-259.429c0-175.429 114.37-307.429 265.481-307.429v0zM512 861.143c91.852 0 172.444-78.857 172.444-169.143 0-124.571-74.074-218.286-172.444-218.286s-172.444 93.714-172.444 218.286c0 90.286 80.593 169.143 172.444 169.143v0zM598.519 158.857l-86.519 132-86.519-132 48-42.857-50.37-189.143h177.778l-50.37 189.143 48 42.857zM267.259 278.286c-40.296-7.429-113.778-22.286-135.704-27.429-66.37-15.429-109.037-64.571-117.333-133.714-3.556-31.429-10.074-120-14.222-190.286h94.222c4.741 68 10.074 151.429 13.63 179.429 5.333 41.143 28.444 51.429 46.222 56 22.519 5.143 113.185 22.857 158.222 31.429l26.074 5.143 49.185 136.571c-29.63 12.571-56.889 29.143-81.778 49.714l-38.519-106.857zM1009.778 117.143c-8.296 69.143-50.963 118.286-117.333 133.714-21.926 5.143-95.407 20-135.704 27.429l-38.519 106.857c-24.889-20.571-52.148-37.143-82.37-49.714l49.778-136.571 26.074-5.143c45.037-8.571 135.704-26.286 158.222-31.429 17.778-4.571 40.889-14.857 46.222-56 3.556-28 8.889-111.429 13.037-179.429h94.815c-4.741 70.286-10.667 158.857-14.222 190.286v0z" />
<glyph unicode="&#xe630;" glyph-name="search" d="M994.286 90.075c-0.736 0.736-1.471 1.358-2.15 1.981-110.915 96.372-187.707 166.43-226.075 201.968-4.754 3.395-8.998 7.357-12.789 11.827-9.45 11.431-15.053 26.031-15.053 42.046 0 2.829 0.17 5.602 0.509 8.375 0.736 5.602 2.094 10.978 4.131 16.071 1.528 3.848 3.509 7.583 5.772 11.092 25.352 51.61 39.782 109.501 40.235 170.844 1.358 217.643-174.013 395.108-391.939 396.466-0.849 0.113-1.754 0.113-2.547 0.113-216.681-0.113-393.014-174.748-394.372-391.486-1.415-217.643 174.069-395.164 391.882-396.522h2.547c62.645 0 121.95 14.657 174.579 40.744 1.415 0.792 2.773 1.471 4.244 2.094 7.583 3.509 15.902 5.602 24.673 5.942 1.019 0.113 1.981 0.113 2.886 0.113 15.902 0 30.502-5.602 41.82-14.883 3.622-2.999 6.904-6.281 9.79-9.903 36.67-37.066 113.066-116.178 210.060-226.471 0.679-0.792 1.471-1.698 2.32-2.49 34.067-35.651 93.203-32.086 128.288 3.452 35.142 35.651 34.746 96.994 1.188 128.628v0zM601.498 348.575c-31.973-31.69-69.945-55.231-111.368-69.379-30.332-10.469-62.645-15.845-95.693-15.845h-1.924c-161.959 0.962-292.964 133.495-291.945 295.34 1.019 160.771 132.872 291.662 293.813 291.662h1.981c78.433-0.509 152.056-31.52 207.174-87.318s85.224-129.703 84.714-208.079c-0.226-34.746-6.395-68.417-18.165-100.107-14.543-39.499-37.745-75.717-68.586-106.275v0z" />
<glyph unicode="&#xe631;" glyph-name="studio" horiz-adv-x="928" d="M900.019 52.266l-169.541 287.507c132.231 127.843 121.258 282.021 121.258 282.021h-103.699c-8.229-134.427-68.585-183.259-68.585-183.259l-95.47 161.312 25.238 24.142v153.63c-11.522 54.868-83.948 38.957-83.948 38.957v104.249h-126.195l-0.548-100.957-37.859 0.548c-32.921 0.548-49.931-43.346-49.931-43.346l2.195-151.436 23.593-26.885-309.455-535.51-6.036-92.177c0-21.398 21.398-10.974 21.398-10.974l74.62 54.32 158.019 265.561c190.941-114.125 370.908-1.645 370.908-1.645l164.055-284.764 81.753-54.868c15.363-3.293 15.363 8.779 15.363 8.779l-7.133 104.799zM459.979 769.389c41.15 0 75.168-33.47 75.168-75.168 0-41.15-33.47-75.168-75.168-75.168s-75.168 33.47-75.168 75.168c0.548 41.699 34.018 75.168 75.168 75.168zM325.553 369.951l89.983 153.082 24.142-23.593c25.238-13.168 44.991 0 44.991 0l20.85 18.107 85.594-150.338c-141.558-77.364-265.561 2.743-265.561 2.743z" />
<glyph unicode="&#xe632;" glyph-name="upload-cloud2" d="M780.323 664.839c-38.090 137.76-163.471 234.818-309.484 234.818-95.226 0-180.4-34.962-239.652-97.58-53.432-56.878-82-133.064-82.529-218.12-92.581-35.484-148.658-114.278-148.658-212.902 0-122.627 101.045-222.816 224.839-222.816h113.742v83.491h-113.742c-77.239 0-140.194 62.618-140.194 139.325 0 70.445 43.91 123.671 117.974 142.456l34.387 8.349-2.645 34.962c-5.819 76.185 14.284 140.891 58.723 188.376 42.852 45.92 106.335 70.967 177.755 70.967 115.329 0 213.2-82.447 233.303-196.204l5.29-31.831 33.329-2.609c110.568-8.349 188.335-81.404 188.335-176.896 0-97.58-79.884-176.896-177.755-176.896h-93.11v-83.491h93.11c144.426 0 262.4 116.887 262.4 260.387 0 131.498-95.226 233.253-235.419 256.213v0zM713.665 357.488l-214.258 221.773-214.258-221.773 61.368-57.4 110.568 114.278v-266.127h84.645v266.127l110.568-114.278 61.368 57.4z" />
<glyph unicode="&#xe633;" glyph-name="android" d="M884.463 272.159c-36.498 0-66.082 27.059-66.082 60.448v236.293c0 33.389 29.584 60.469 66.082 60.469s66.082-27.080 66.082-60.469v-236.293c0-33.389-29.584-60.448-66.082-60.448v0zM721.874 136.578h-55.328v-135.49c0-34.434-27.824-62.323-62.125-62.323s-62.103 27.889-62.103 62.323v135.49h-96.681v-135.49c0-34.434-27.803-62.323-62.125-62.323-34.301 0-62.103 27.889-62.103 62.323v135.49h-55.328c-26.759 0-48.447 21.43-48.447 47.844v444.947h552.687v-444.947c0-26.414-21.688-47.844-48.447-47.844v0zM362.975 864.875l-51.046 72.049c-3.047 4.273-2.28 9.914 1.662 12.566 3.963 2.652 9.651 1.326 12.676-2.947l53.027-74.848c34.94 13.387 73.778 20.838 114.683 20.838s79.744-7.451 114.683-20.838l53.027 74.848c3.025 4.273 8.714 5.599 12.676 2.947 3.941-2.652 4.708-8.293 1.683-12.566l-51.067-72.049c81.171-36.709 138.097-106.463 145.341-187.879h-552.687c7.244 81.415 64.17 151.17 145.341 187.879v0zM620.145 748.438c16.593 0 30.027 13.319 30.027 29.757s-13.434 29.778-30.027 29.778c-16.593 0-30.048-13.34-30.048-29.778s13.455-29.757 30.048-29.757v0zM379.846 748.438c16.572 0 30.027 13.319 30.027 29.757s-13.455 29.778-30.027 29.778c-16.593 0-30.048-13.34-30.048-29.778s13.455-29.757 30.048-29.757v0zM127.533 272.159c-36.492 0-66.093 27.059-66.093 60.448v236.293c0 33.389 29.602 60.469 66.093 60.469s66.071-27.080 66.071-60.469v-236.293c0-33.389-29.579-60.448-66.071-60.448v0z" />
<glyph unicode="&#xe634;" glyph-name="trash" d="M874.852 865.524h-164.73c0 47.061-36.982 85.333-82.365 85.333h-247.096c-45.342 0-82.365-38.272-82.365-85.333h-164.73c-45.342 0-82.365-38.272-82.365-85.333v-170.667h82.365v-597.333c0-47.104 37.023-85.333 82.365-85.333h576.557c45.383 0 82.365 38.229 82.365 85.333v597.333h82.365v170.667c0 47.061-36.982 85.333-82.365 85.333v0zM874.852 694.857h-82.365v-682.667h-576.557v682.667h-82.365v85.333h247.096v85.333h247.096v-85.333h247.096v-85.333zM339.478 609.524c-22.733 0-41.183-19.115-41.183-42.667v-426.667c0-23.595 18.45-42.667 41.183-42.667 22.774 0 41.183 19.072 41.183 42.667v426.667c0 23.552-18.409 42.667-41.183 42.667v0zM504.209 609.524c-22.733 0-41.183-19.115-41.183-42.667v-426.667c0-23.595 18.45-42.667 41.183-42.667 22.774 0 41.183 19.072 41.183 42.667v426.667c0 23.552-18.409 42.667-41.183 42.667v0zM627.757 140.19c0-23.595 18.45-42.667 41.183-42.667 22.774 0 41.183 19.072 41.183 42.667v426.667c0 23.552-18.409 42.667-41.183 42.667-22.733 0-41.183-19.115-41.183-42.667v-426.667z" />
<glyph unicode="&#xe635;" glyph-name="attachment" d="M665.832 623.809l-64.952 64.922-324.81-324.742c-53.814-53.792-53.814-141.048 0-194.844 53.804-53.792 141.060-53.792 194.874 0l389.772 389.708c89.714 89.662 89.714 235.062 0 324.726-89.666 89.704-235.112 89.704-324.782 0l-409.23-409.178c-0.29-0.304-0.612-0.576-0.876-0.846-125.102-125.096-125.102-327.856 0-452.906 125.054-125.056 327.868-125.056 452.988 0 0.274 0.274 0.516 0.568 0.82 0.876l0.032-0.034 279.332 279.292-64.986 64.92-279.33-279.262c-0.296-0.268-0.564-0.57-0.846-0.844-89.074-89.058-233.98-89.058-323.076 0-89.062 89.042-89.062 233.922 0 322.978 0.304 0.304 0.604 0.582 0.888 0.846l-0.046 0.060 409.28 409.166c53.712 53.738 141.144 53.738 194.886 0 53.712-53.734 53.712-141.148 0-194.84l-389.772-389.7c-17.936-17.922-47.054-17.922-64.972 0-17.894 17.886-17.894 47.032 0 64.92l324.806 324.782z" />
<glyph unicode="&#xe636;" glyph-name="apple" d="M791.498 406.765c-1.294 129.682 105.758 191.876 110.542 194.966-60.152 88.020-153.85 100.078-187.242 101.472-79.742 8.074-155.596-46.948-196.066-46.948-40.368 0-102.818 45.754-168.952 44.552-86.916-1.292-167.058-50.538-211.812-128.38-90.304-156.698-23.126-388.84 64.89-515.926 43.008-62.204 94.292-132.076 161.626-129.58 64.842 2.588 89.362 41.958 167.756 41.958s100.428-41.958 169.050-40.67c69.774 1.296 113.982 63.398 156.692 125.796 49.39 72.168 69.726 142.038 70.924 145.626-1.548 0.706-136.060 52.236-137.408 207.134zM662.562 787.335c35.738 43.358 59.86 103.512 53.28 163.522-51.478-2.096-113.878-34.29-150.81-77.55-33.142-38.376-62.148-99.626-54.374-158.436 57.466-4.484 116.128 29.204 151.904 72.464z" />
<glyph unicode="&#xe637;" glyph-name="calendar" d="M404.654 155.282h92.464l142.627 338.109h-258.633v-87.252h130.886zM937.792 831.502h-87.676v87.252h-87.252v-87.252h-207.229v87.252h-87.252v-87.252h-207.229v87.252h-87.252v-87.252h-87.65c-46.897 0-86.857-37.946-86.857-84.935v-681.233c0-46.988 39.952-84.562 86.857-84.562h851.545c46.897 0 86.83 37.574 86.83 84.562v681.233c0 46.988-39.926 84.935-86.83 84.935zM937.369 68.026h-850.727v512.618h850.727v-512.618zM937.369 656.99h-850.727v87.252h850.727v-87.252z" />
<glyph unicode="&#xe638;" glyph-name="calendar2" d="M404.654 155.282h92.464l142.627 338.109h-258.633v-87.252h130.886zM937.792 831.502h-87.676v87.252h-87.252v-87.252h-207.229v87.252h-87.252v-87.252h-207.229v87.252h-87.252v-87.252h-87.65c-46.897 0-86.857-37.946-86.857-84.935v-681.233c0-46.988 39.952-84.562 86.857-84.562h851.545c46.897 0 86.83 37.574 86.83 84.562v681.233c0 46.988-39.926 84.935-86.83 84.935zM937.369 68.026h-850.727v512.618h850.727v-512.618zM937.369 656.99h-850.727v87.252h850.727v-87.252z" />
<glyph unicode="&#xe639;" glyph-name="eye-close" d="M240.32 310.185l-151.277 127.712 213.291 247.12c56.208 55.225 130.494 85.609 209.538 85.609 53.088 0 103.833-14.001 148.609-39.694l62.303 62.371c-63.814 41.913-137.386 62.914-210.913 62.914-98.488 0-197.012-37.566-272.049-112.724l-221.096-256.185c-13.439-15.586-20.114-35.917-18.486-56.43 1.628-20.54 11.395-39.558 27.123-52.826l152.326-128.591 60.63 60.723zM510.949 599.453c5.68 0 11.106-0.96 16.568-1.675l69.023 69.118c-26.254 11.529-55.132 18.14-85.591 18.14-118.014 0-213.671-95.78-213.671-213.965 0-30.529 6.593-59.446 18.115-85.709l69.023 69.118c-0.705 5.497-1.673 10.904-1.673 16.591 0.009 70.802 57.519 128.383 128.206 128.383v0zM1005.017 487.291l-160.42 185.881 179.404 183.037-60.467 60.514-897.362-898.632 60.431-60.514 187.046 183.952c60.757-36.769 129.409-55.579 198.224-55.579 98.488 0 197.021 37.566 272.049 112.724l212.459 179.361c15.736 13.268 25.495 32.286 27.132 52.826 1.619 20.513-5.056 40.844-18.495 56.43v0zM638.739 467.068c-2.125-67.533-56.343-121.835-123.775-123.963l123.775 123.963zM728.835 264.116l-2.795-2.364-2.541-2.572c-56.461-56.521-131.58-87.647-211.627-87.647-48.032 0-94.228 11.366-135.713 32.594l65.442 65.532c21.787-7.671 44.903-12.534 69.358-12.534 118.023 0 213.671 95.78 213.671 213.965 0 24.488-4.838 47.618-12.517 69.435l71.899 71.998 150.698-174.615-205.875-173.791z" />
<glyph unicode="&#xe63a;" glyph-name="reply" d="M374.179 576.88l274.753-0.133c0.438 0 0.843 0.133 1.314 0.133h110.735l-229.022 229.157c-26.35 26.353-26.35 69.051 0 95.387l0.945 0.977c26.32 26.336 69.017 26.336 95.338 0l339.35-339.572c2.393-1.821 4.818-3.539 6.976-5.712l0.371-0.354c0.102-0.084 0.169-0.169 0.236-0.253l0.369-0.354c2.325-2.325 4.213-4.918 6.102-7.5 0.607-0.79 1.348-1.468 1.889-2.291 7.851-11.508 11.793-24.852 11.726-38.231 0-0.119 0.034-0.203 0.034-0.32 0-0.102-0.034-0.201-0.034-0.303 0.067-13.379-3.875-26.725-11.726-38.234-0.54-0.809-1.248-1.485-1.821-2.258-1.955-2.577-3.842-5.187-6.169-7.53l-0.369-0.371c-0.067-0.084-0.133-0.15-0.236-0.236l-0.371-0.354c-2.158-2.191-4.583-3.909-6.976-5.729l-339.353-339.555c-26.32-26.336-69.017-26.336-95.338 0l-0.945 0.958c-26.35 26.336-26.35 69.051 0 95.406l229.023 229.155h-110.735c-0.473 0-0.876 0.119-1.314 0.133v-0.133h-274.753c-114.174 0-207.050-92.944-207.050-207.169v-206.971c0-38.148-30.903-69.068-69.017-69.068s-69.017 30.919-69.017 69.068v206.971c0 190.688 154.477 345.286 345.082 345.286z" />
<glyph unicode="&#xe63b;" glyph-name="email" d="M150.364 796.871h699.226c12.672 0 24.79 0.53 37.304-0.916 28.588-3.258 54.14-16.304 73.472-35.558 16.604-16.604 25.706-34.122 30.778-52.704l-161.57-148.678-233.452-211.998c-53.232-48.298-139.144-48.298-192.368 0l-233.372 211.998-161.57 148.678c4.958 18.582 14.096 36.1 30.766 52.704 19.254 19.254 44.882 32.3 73.472 35.558 12.506 1.45 24.568 0.916 37.318 0.916v0zM499.97 726.439h-354.622c-18.956 0-35.328-1.678-46.318-8.188l349.54-318.312c27.67-25.086 75.052-25.086 102.722 0l349.618 318.312c-10.992 6.506-27.376 8.186-46.332 8.186h-354.61zM499.97 128.655h349.616c12.672 0 24.79-0.606 37.304 0.818 28.588 3.27 54.14 16.316 73.472 35.648 33.736 33.826 36.698 71.35 36.698 113.89v376.672l-70.668-65.056v-313.374c0-22.976 2.652-43.822-15.698-62.182-6.506-6.518-14.692-11.456-23.64-14.018-10.096-2.818-22.138-1.978-32.456-1.978h-709.256c-10.384 0-22.37-0.84-32.444 1.978-9.026 2.562-17.132 7.5-23.662 14.018-18.414 18.358-15.764 39.206-15.764 62.182v313.374l-70.622 65.056v-376.672c0-42.542 2.928-80.066 36.732-113.89 19.256-19.332 44.882-32.378 73.472-35.648 12.506-1.424 24.558-0.818 37.306-0.818h349.606z" />
<glyph unicode="&#xe63c;" glyph-name="error2" d="M921.6 798.985l-49.472 49.472-360.128-360.128-360.128 360.128-49.472-49.472 360.128-360.128-360.128-360.128 49.472-49.472 360.128 360.128 360.128-360.128 49.472 49.472-360.128 360.128 360.128 360.128z" />
<glyph unicode="&#xe63d;" glyph-name="cross" d="M924.412 910.185q25.315 0 42.115-16.8t16.8-42.115q0-24.854-17.029-41.885l-370.986-370.525 370.986-370.525q17.029-17.029 17.029-41.885 0-25.315-16.8-42.115t-42.115-16.8q-24.854 0-41.885 17.029l-370.525 370.986-370.525-370.986q-17.029-17.029-41.885-17.029-25.315 0-42.115 16.8t-16.8 42.115q0 24.854 17.029 41.885l370.986 370.525-370.986 370.525q-17.029 17.029-17.029 41.885 0 25.315 16.8 42.115t42.115 16.8q24.854 0 41.885-17.029l370.525-370.986 370.525 370.986q17.029 17.029 41.885 17.029z" />
<glyph unicode="&#xe63e;" glyph-name="user-plus" d="M691.992 391.581c103.618 0 182.043 94.876 182.043 220.423 0 100.192-83.301 185.253-182.043 185.253s-182.043-85.061-182.043-185.253c0-125.547 78.425-220.423 182.043-220.423v0zM691.992 733.87c62.984 0 118.653-57.253 118.653-121.866 0-89.56-50.793-157.036-118.653-157.036s-118.653 67.476-118.653 157.036c0 64.614 55.669 121.866 118.653 121.866v0zM150.56 455.933h-150.56v-60.224h150.56v-150.56h60.224v150.56h150.56v60.224h-150.56v150.56h-60.224v-150.56zM419.334 64.422l5.689 60.933c12.597 122.684 151.567 149.675 266.97 149.675s254.373-26.991 266.97-149.266l5.689-61.342h65.015l-5.689 67.476c-14.222 133.726-131.25 207.337-331.985 207.337s-317.763-73.611-331.985-207.746l-5.689-67.067h65.015z" />
<glyph unicode="&#xe63f;" glyph-name="ios" d="M791.498 406.765c-1.294 129.682 105.758 191.876 110.542 194.966-60.152 88.020-153.85 100.078-187.242 101.472-79.742 8.074-155.596-46.948-196.066-46.948-40.368 0-102.818 45.754-168.952 44.552-86.916-1.292-167.058-50.538-211.812-128.38-90.304-156.698-23.126-388.84 64.89-515.926 43.008-62.204 94.292-132.076 161.626-129.58 64.842 2.588 89.362 41.958 167.756 41.958s100.428-41.958 169.050-40.67c69.774 1.296 113.982 63.398 156.692 125.796 49.39 72.168 69.726 142.038 70.924 145.626-1.548 0.706-136.060 52.236-137.408 207.134zM662.562 787.335c35.738 43.358 59.86 103.512 53.28 163.522-51.478-2.096-113.878-34.29-150.81-77.55-33.142-38.376-62.148-99.626-54.374-158.436 57.466-4.484 116.128 29.204 151.904 72.464z" />
<glyph unicode="&#xe640;" glyph-name="filter" horiz-adv-x="1076" d="M1075.491 795.356c0 85.883-240.753 155.501-537.741 155.501s-537.75-69.618-537.75-155.501c0-19.679 13.171-38.456 36.264-55.788l387.050-461.149v-239.134l237.349-112.429v351.785l378.719 461.033c22.986 17.303 36.109 36.031 36.109 55.681zM537.741 874.556c244.953 0 400.677-46.729 450.034-79.2-49.357-32.472-205.091-79.22-450.034-79.22s-400.687 46.739-450.044 79.22c49.357 32.472 205.091 79.2 450.044 79.2zM584.363 305.964v-258.551l-84.758 40.143v218.621l-311.516 371.183c94.049-23.316 216.031-37.505 349.671-37.505 134.891 0 257.862 14.471 352.251 38.194l-305.648-372.085z" />
<glyph unicode="&#xe641;" glyph-name="test-speed" horiz-adv-x="1091" d="M545.391 950.857c-300.719 0-545.391-244.672-545.391-545.461 0-194.069 104.445-375.092 272.585-472.388 10.434-6.035 22.772-7.799 34.54-4.561 11.63 3.11 21.518 10.747 27.611 21.17l250.034 433.054c12.558 21.739 5.095 49.536-16.655 62.094s-49.536 5.118-62.105-16.643l-226.114-391.689c-105.327 76.079-173.166 194.429-186.258 323.502h88.069c25 0 45.45 20.427 45.45 45.45 0 25-20.462 45.45-45.45 45.45h-88.51c13.243 132.811 84.122 248.676 187.012 322.934l43.941-76.207c12.523-21.669 40.436-29.132 62.059-16.609 21.657 12.477 29.12 40.378 16.655 62.059l-44.081 76.393c57.022 25.801 120.067 40.529 186.594 40.529 66.492 0 129.526-14.74 186.478-40.483l-44.034-76.393c-12.477-21.669-5.014-49.57 16.643-62.105 21.623-12.523 49.547-5.026 62.070 16.655l44.034 76.207c102.843-74.303 173.781-190.158 187.001-323.026h-88.556c-24.977 0.046-45.45-20.404-45.45-45.404 0-24.977 20.474-45.45 45.45-45.45h87.802c-13.092-129.027-81.058-246.877-186.339-322.887l-43.941 76.102c-12.523 21.669-40.436 29.155-62.070 16.69-21.646-12.535-29.12-40.436-16.643-62.094l68.048-117.804c0.046-0.093 0.081-0.139 0.128-0.186 0-0.046 0-0.116 0.093-0.186 3.238-5.617 8.705-10.898 12.825-13.672 16.597-12.152 36.119-10.515 49.269-2.878 168.082 97.296 272.574 278.319 272.574 472.388 0.035 300.777-244.637 545.449-545.368 545.449z" />
<glyph unicode="&#xe642;" glyph-name="udid" horiz-adv-x="757" d="M613.050 880.595c40.884 0 74.029-33.145 74.029-74.040v-735.397c0-40.894-33.145-74.040-74.029-74.040h-468.758c-40.884 0-74.040 33.145-74.040 74.040v735.397c0 40.894 33.155 74.040 74.040 74.040h468.758zM613.050 950.857h-468.758c-79.559 0-144.291-64.722-144.291-144.291v-735.417c0-79.559 64.712-144.291 144.291-144.291h468.758c79.549 0 144.291 64.712 144.291 144.291v735.417c-0.010 79.559-64.743 144.291-144.291 144.291v0zM262.637 684.29v-270.284h-59.427v270.284h59.427zM431.489 684.29c17.403 0 33.614-2.77 48.633-8.319 15.010-5.56 28.003-13.889 38.97-24.989 10.998-11.12 19.561-24.989 25.752-41.648 6.15-16.649 9.277-36.22 9.277-58.674 0-19.694-2.525-37.87-7.576-54.519s-12.688-31.037-22.891-43.165c-10.224-12.097-22.983-21.639-38.227-28.573-15.284-6.945-33.267-10.417-53.939-10.417h-116.594v270.284l116.594 0.020zM427.294 463.973c8.594 0 16.914 1.385 24.989 4.155s15.284 7.393 21.598 13.808c6.313 6.446 11.323 14.836 15.111 25.192 3.788 10.336 5.713 22.952 5.713 37.85 0 13.635-1.324 25.936-3.982 36.903-2.648 10.987-7.016 20.376-13.054 28.207-6.079 7.831-14.093 13.818-24.062 18.003-9.959 4.155-22.28 6.242-36.903 6.242h-42.391v-170.349h52.981zM431.235 127.46c0-29.036-23.538-52.574-52.574-52.574s-52.574 23.538-52.574 52.574c0 29.036 23.538 52.574 52.574 52.574s52.574-23.538 52.574-52.574z" />
<glyph unicode="&#xe643;" glyph-name="update" horiz-adv-x="1021" d="M340.489 652.935h-197.512c75.46 130.425 214.591 212.8 367.733 212.8 205.526 0 381.552-146.465 418.601-348.217 3.726-20.495 21.642-34.828 41.815-34.828 2.532 0 5.112 0.215 7.716 0.681 23.123 4.24 38.411 26.431 34.171 49.542-44.43 242.133-255.654 417.944-502.29 417.944-173.326 0-332.105-87.619-425.624-228.852v186.297h-85.051l-0.048-340.489h340.489v85.122zM680.967 312.469v-85.122h197.763c-75.4-130.604-214.376-212.8-367.996-212.8-205.526 0-381.552 146.381-418.601 348.169-4.192 23.075-25.93 38.375-49.53 34.159-23.123-4.228-38.411-26.395-34.171-49.53 44.43-242.181 255.654-417.932 502.29-417.932 173.744 0 332.093 87.451 425.612 228.673v-186.118h85.122v340.501h-340.489z" />
<glyph unicode="&#xe644;" glyph-name="comma" horiz-adv-x="194" d="M194.101 950.857v-193.543c0.819-27.834-3.107-53.977-11.829-78.429-8.709-24.465-20.967-45.972-36.722-64.519-15.768-18.56-34.655-33.95-56.637-46.17-21.994-12.233-45.86-20.040-71.572-23.409v83.489c31.523 10.951 53.088 27.2 64.722 48.706 11.608 21.506 17.419 47.847 17.419 79.063h-99.481v194.811h194.101z" />
<glyph unicode="&#xe645;" glyph-name="i" horiz-adv-x="388" d="M9.896 41.729h93.149v460.124h-103.045v135.228h295.94v-595.352h92.474v-114.872h-378.499v114.872h-0.018zM295.921 807.099h-192.876v143.758h192.876v-143.758z" />
<glyph unicode="&#xe646;" glyph-name="r" horiz-adv-x="494" d="M9.604 39.885h89.582v448.565h-99.187v131.831h273.249l8.316-101.111c16.207 35.84 37.111 63.77 62.711 83.827 25.6 20.039 55.243 30.067 88.947 30.067 9.816 0 20.162-0.742 31.038-2.242s19.933-3.302 27.189-5.438l-19.844-170.214-76.782 1.924c-27.313 0-49.911-5.332-67.831-15.996s-31.585-25.812-40.96-45.444v-355.787h89.582v-111.987h-366.027v112.004h0.018z" />
<glyph unicode="&#xe647;" glyph-name="f-dot" d="M204.8 533.096v94.563h107.295v88.734c0 74.701 19.152 132.453 57.457 173.257s91.74 61.207 160.307 61.207c14.391 0 28.887-1.187 43.489-3.562s30.792-5.721 48.568-10.039l-15.237-97.154c-7.619 1.727-16.824 3.238-27.617 4.534s-21.903 1.943-33.331 1.943c-36.823 0-64.123-11.119-81.9-33.356s-26.665-54.514-26.665-96.83v-88.734h143.483v-94.563h-143.483v-506.495l103.485-18.135v-81.609h-332.042v81.609l103.485 18.135v506.495h-107.295zM839.68-73.143h-125.071v130.834h125.071v-130.834z" />
<glyph unicode="&#xe648;" glyph-name="layers" d="M784.623 360.644l81.838-47.697-354.462-227.203-354.973 227.203 82.35 47.697-77.746 49.749-161.63-94.369 512-327.727 512 327.727-162.142 94.369-77.235-49.749zM512 264.223l512 327.727-512 297.467-512-297.467 512-327.727zM157.027 588.36l354.973 206.175 354.462-206.175-354.462-227.203-354.973 227.203z" />
<glyph unicode="&#xe649;" glyph-name="news" d="M317.793 848.457v-638.507c0-62.867-51.31-113.707-114.759-113.707s-114.759 50.84-114.759 113.707v516.053c0 19.133 16 34.987 35.31 34.987s35.31-15.853 35.31-34.987v-437.333h88.276v437.333c0 67.24-55.172 122.453-123.586 122.453s-123.586-55.213-123.586-122.453v-516.053c0-110.973 91.034-201.173 203.034-201.173h617.931c112 0 203.034 90.2 203.034 201.173v638.507h-706.207zM935.724 209.95c0-62.867-51.31-113.707-114.759-113.707h-450.759c22.621 32.253 35.862 71.613 35.862 113.707v551.040h529.655v-551.040zM865.103 288.67h-388.414v-87.467h388.414v87.467zM865.103 691.017h-388.414v-332.373h388.414v332.373zM564.966 603.55h211.862v-157.44h-211.862v157.44z" />
<glyph unicode="&#xe64a;" glyph-name="percent" d="M597.333 950.857v-85.333h281.003l-823.168-823.168 60.331-60.331 823.168 823.168v-281.003h85.333v426.667h-426.667zM256 438.857c141.184 0 256 114.816 256 256s-114.816 256-256 256c-141.184 0-256-114.816-256-256s114.859-256 256-256v0zM256 865.524c94.123 0 170.667-76.587 170.667-170.667s-76.544-170.667-170.667-170.667c-94.123 0-170.667 76.587-170.667 170.667s76.544 170.667 170.667 170.667v0zM768 438.857c-141.184 0-256-114.816-256-256s114.816-256 256-256c141.184 0 256 114.816 256 256s-114.816 256-256 256v0zM768 12.19c-94.123 0-170.667 76.544-170.667 170.667 0 94.080 76.544 170.667 170.667 170.667s170.667-76.587 170.667-170.667c0-94.123-76.544-170.667-170.667-170.667v0z" />
<glyph unicode="&#xe64b;" glyph-name="bughd" horiz-adv-x="3289" d="M1838.531 775.928v-658.876c0-85.484 69.476-155.19 155.179-155.19h1111.218c85.651 0 155.179 69.481 155.179 155.19v658.876c0 85.484-69.476 155.19-155.179 155.19h-1111.218c-85.651 0-155.179-69.481-155.179-155.19zM127.147 539.762h197.728c29.078 0 53.309 8.239 72.694 24.716s29.078 40.224 29.078 71.24c0 34.893-8.723 59.448-26.17 73.664s-42.647 21.324-75.602 21.324h-197.728v-190.944zM5.989 829.57h336.332c62.033 0 111.787-14.216 149.266-42.647s56.217-71.402 56.217-128.911c0-34.893-8.562-64.779-25.685-89.656s-41.516-44.101-73.179-57.671v-1.939c42.648-9.046 74.956-29.239 96.926-60.579s32.955-70.594 32.955-117.765c0-27.139-4.846-52.501-14.539-76.087s-24.877-43.94-45.555-61.063c-20.678-17.124-47.17-30.693-79.479-40.709s-70.756-15.023-115.342-15.023h-317.916v692.049zM127.147 236.385h214.206c36.832 0 65.425 9.531 85.779 28.593s30.532 46.040 30.532 80.933c0 34.247-10.177 60.578-30.532 78.994s-48.947 27.624-85.779 27.624h-214.206v-216.144zM1112.881 137.521h-108.557v69.786h-1.939c-13.57-25.201-33.762-45.393-60.579-60.579s-54.117-22.778-81.902-22.778c-65.91 0-113.564 16.316-142.965 48.947s-44.101 81.902-44.101 147.812v317.916h110.495v-307.254c0-43.94 8.4-74.956 25.201-93.049s40.386-27.139 70.756-27.139c23.262 0 42.647 3.554 58.155 10.662s28.108 16.639 37.801 28.593c9.693 11.954 16.639 26.331 20.839 43.132s6.3 34.893 6.3 54.278v290.777h110.495v-501.106zM1692.496 163.691c0-75.602-21.162-131.98-63.486-169.135s-103.225-55.732-182.705-55.732c-25.201 0-50.563 2.585-76.087 7.754s-48.786 13.893-69.786 26.17c-21.001 12.277-38.609 28.431-52.824 48.463s-22.616 44.586-25.201 73.664h110.495c3.231-15.508 8.723-28.108 16.477-37.801s16.962-17.285 27.624-22.778c10.662-5.492 22.454-9.046 35.378-10.662s26.493-2.423 40.709-2.423c44.586 0 77.217 10.985 97.895 32.955s31.016 53.632 31.016 94.987v76.571h-1.938c-15.508-27.785-36.67-49.432-63.486-64.94s-55.732-23.262-86.748-23.262c-40.063 0-74.148 6.946-102.257 20.839s-51.371 32.955-69.786 57.186c-18.416 24.232-31.824 52.178-40.224 83.841s-12.6 65.586-12.6 101.772c0 33.601 5.169 65.586 15.508 95.956s25.201 57.024 44.586 79.964c19.385 22.939 43.132 41.193 71.24 54.763s59.932 20.354 95.472 20.354c31.663 0 60.74-6.623 87.233-19.87s46.847-34.085 61.063-62.517h1.938v68.817h110.495v-474.936zM1447.274 224.754c24.555 0 45.393 5.008 62.517 15.023s31.016 23.262 41.678 39.74c10.662 16.477 18.416 35.216 23.262 56.217s7.269 42.163 7.269 63.486c0 21.324-2.585 42.001-7.754 62.032s-13.085 37.801-23.747 53.309c-10.662 15.508-24.554 27.785-41.678 36.832s-37.639 13.57-61.548 13.57c-24.555 0-45.232-5.169-62.032-15.508s-30.37-23.747-40.709-40.224c-10.339-16.477-17.77-35.216-22.293-56.217s-6.785-41.839-6.785-62.517c0-20.678 2.585-40.87 7.754-60.579s13.085-37.316 23.747-52.824c10.662-15.508 24.231-28.108 40.709-37.801s36.347-14.539 59.609-14.539zM2040.524 723.876h96.926v-220.215h252.007v220.215h96.926v-553.639h-96.926v249.681h-252.007v-249.681h-96.926v553.639zM2602.693 723.876h229.52c42.389 0 79.091-7.237 110.108-21.711s56.346-34.247 75.99-59.319c19.644-25.072 34.247-54.407 43.81-88.009s14.345-69.528 14.345-107.781c0-38.254-4.782-74.18-14.345-107.781s-24.167-62.937-43.81-88.009c-19.644-25.072-44.973-44.844-75.99-59.319s-67.719-21.711-110.108-21.711h-229.52v553.639zM2699.618 249.328h95.375c37.737 0 68.623 5.040 92.661 15.12s42.906 24.037 56.605 41.872c13.699 17.834 23.004 38.77 27.915 62.808s7.366 50.014 7.366 77.928c0 27.915-2.455 53.891-7.366 77.928s-14.216 44.973-27.915 62.808c-13.699 17.834-32.567 31.792-56.605 41.872s-54.924 15.12-92.661 15.12h-95.375v-395.457z" />
<glyph unicode="&#xe64c;" glyph-name="incode" horiz-adv-x="3932" d="M169.667 624.367v-649.949h-114.206v649.949h114.206zM195.331 828.398c0-11.121-2.246-21.494-6.737-31.118s-10.48-18.179-17.965-25.664c-7.485-7.485-16.147-13.367-25.985-17.644s-20.318-6.416-31.439-6.416c-11.121 0-21.494 2.139-31.118 6.416s-18.179 10.159-25.664 17.644c-7.485 7.485-13.367 16.040-17.644 25.664s-6.416 19.997-6.416 31.118c0 11.121 2.139 21.708 6.416 31.76s10.159 18.82 17.644 26.306c7.485 7.485 16.040 13.367 25.664 17.644s19.997 6.416 31.118 6.416c11.121 0 21.601-2.139 31.439-6.416s18.5-10.159 25.985-17.644c7.485-7.485 13.474-16.254 17.965-26.306s6.737-20.638 6.737-31.76v0zM371.132-25.582v649.949h68.010c16.254 0 26.52-7.913 30.797-23.74l8.982-70.577c28.231 31.225 59.776 56.461 94.637 75.71s75.175 28.872 120.943 28.872c35.502 0 66.834-5.881 93.996-17.644s49.831-28.445 68.010-50.045c18.179-21.601 31.973-47.586 41.384-77.955s14.115-63.947 14.115-100.732v-413.837h-114.206v413.837c0 49.19-11.228 87.366-33.684 114.527s-56.782 40.742-102.978 40.742c-33.792 0-65.337-8.127-94.637-24.381s-56.354-38.282-81.163-66.086v-478.64h-114.206zM1750.589 164.334c6.844 0 13.046-2.78 18.607-8.341l48.762-53.253c-37.641-43.63-83.302-77.634-136.983-102.016s-118.376-36.572-194.086-36.572c-66.3 0-126.397 11.442-180.292 34.326s-99.877 54.964-137.946 96.241c-38.069 41.277-67.583 90.787-88.542 148.532s-31.439 121.264-31.439 190.558c0 69.294 11.228 132.813 33.684 190.558s54.002 107.362 94.637 148.853c40.635 41.491 89.29 73.678 145.966 96.562s119.232 34.326 187.67 34.326c67.583 0 125.862-10.479 174.838-31.439s92.498-49.404 130.567-85.334l-40.421-57.103c-2.994-4.277-6.416-7.806-10.266-10.587s-9.41-4.17-16.682-4.17c-5.561 0-11.442 2.032-17.644 6.095s-13.581 9.089-22.136 15.078c-8.555 5.988-18.607 12.404-30.156 19.248s-25.236 13.26-41.063 19.248c-15.826 5.988-34.219 11.014-55.178 15.078s-45.126 6.095-72.502 6.095c-49.19 0-94.209-8.448-135.059-25.344s-76.030-40.956-105.545-72.181c-29.514-31.225-52.505-69.293-68.973-114.206s-24.702-95.172-24.702-150.778c0-57.317 8.234-108.432 24.702-153.344s38.924-82.874 67.369-113.885c28.445-31.011 62.129-54.644 101.053-70.898s80.842-24.381 125.755-24.381c27.375 0 51.97 1.604 73.785 4.812s42.025 8.234 60.632 15.078c18.607 6.844 35.93 15.505 51.97 25.985s32.187 22.991 48.441 37.534c7.272 6.416 14.329 9.624 21.173 9.624v0zM2226.663 634.633c47.479 0 90.36-7.913 128.642-23.74s70.791-38.282 97.524-67.369c26.734-29.086 47.265-64.268 61.594-105.545s21.494-87.365 21.494-138.267c0-51.329-7.165-97.524-21.494-138.587s-34.861-76.137-61.594-105.224c-26.734-29.086-59.242-51.436-97.524-67.048s-81.163-23.419-128.642-23.419c-47.479 0-90.36 7.806-128.642 23.419s-70.898 37.962-97.845 67.048c-26.948 29.086-47.693 64.161-62.236 105.224s-21.815 87.258-21.815 138.587c0 50.901 7.271 96.99 21.815 138.267s35.288 76.458 62.236 105.545c26.948 29.086 59.562 51.542 97.845 67.369s81.163 23.74 128.642 23.74v0zM2226.663 54.619c64.161 0 112.067 21.494 143.72 64.482s47.479 102.978 47.479 179.971c0 77.421-15.826 137.732-47.479 180.933s-79.559 64.802-143.72 64.802c-32.508 0-60.739-5.561-84.692-16.682s-43.95-27.161-59.99-48.121c-16.040-20.959-28.017-46.73-35.93-77.314s-11.87-65.123-11.87-103.62c0-38.497 3.957-72.929 11.87-103.299s19.89-55.927 35.93-76.672c16.040-20.745 36.037-36.679 59.99-47.8s52.184-16.682 84.692-16.682v0zM3134.538-25.582c-16.254 0-26.52 7.913-30.797 23.74l-10.266 78.918c-27.803-33.792-59.562-60.846-95.279-81.163s-76.672-30.476-122.868-30.476c-37.213 0-71.004 7.165-101.374 21.494s-56.248 35.395-77.635 63.198c-21.387 27.803-37.855 62.45-49.404 103.941s-17.323 89.183-17.323 143.079c0 47.907 6.416 92.498 19.248 133.775s31.332 77.1 55.499 107.469c24.167 30.37 53.574 54.216 88.221 71.539s73.999 25.985 118.056 25.985c39.78 0 73.785-6.737 102.016-20.211s53.467-32.401 75.71-56.782v360.584h114.206v-945.089h-68.010zM2913.183 57.827c37.213 0 69.828 8.555 97.845 25.664s53.788 41.277 77.314 72.502v314.388c-20.959 28.231-43.95 48.014-68.973 59.349s-52.719 17.003-83.088 17.003c-60.739 0-107.362-21.601-139.871-64.802s-48.762-104.796-48.762-184.783c0-42.346 3.636-78.597 10.907-108.753s17.965-54.964 32.080-74.427c14.115-19.462 31.439-33.684 51.97-42.667s44.057-13.474 70.577-13.474v0zM3651.674 634.633c38.924 0 74.854-6.523 107.79-19.569s61.38-31.866 85.334-56.462c23.953-24.595 42.667-54.964 56.141-91.108s20.211-77.314 20.211-123.51c0-17.965-1.925-29.942-5.774-35.93s-11.121-8.983-21.815-8.983h-432.444c0.855-41.063 6.416-76.779 16.682-107.149s24.381-55.713 42.346-76.031c17.965-20.318 39.352-35.502 64.161-45.554s52.612-15.078 83.409-15.078c28.659 0 53.36 3.315 74.106 9.945s38.603 13.795 53.574 21.494c14.971 7.699 27.482 14.864 37.534 21.494s18.714 9.945 25.985 9.945c9.41 0 16.682-3.636 21.815-10.907l32.080-41.705c-14.115-17.11-31.011-31.973-50.687-44.592s-40.742-22.991-63.198-31.118c-22.456-8.127-45.661-14.222-69.614-18.286s-47.693-6.095-71.219-6.095c-44.913 0-86.296 7.592-124.151 22.777s-70.577 37.427-98.166 66.727c-27.589 29.3-49.083 65.551-64.482 108.753s-23.098 92.819-23.098 148.853c0 45.341 6.951 87.686 20.852 127.038s33.898 73.464 59.99 102.336c26.092 28.873 57.958 51.542 95.6 68.010s79.987 24.702 127.038 24.702v0zM3654.241 550.582c-55.179 0-98.594-15.933-130.246-47.8s-51.329-76.030-59.028-132.492h353.526c0 26.52-3.636 50.794-10.907 72.823s-17.965 41.063-32.080 57.103c-14.115 16.040-31.332 28.445-51.649 37.213s-43.522 13.153-69.614 13.153v0z" />
<glyph unicode="&#xe64d;" glyph-name="message" d="M994.762 680.239v-422.418c0-66.38-54.31-120.69-120.69-120.69h-241.382v-181.036l-241.382 181.036h-241.382c-66.439 0-120.69 54.31-120.69 120.69v422.418c0 66.38 54.251 120.69 120.69 120.69h724.144c66.38 0 120.69-54.31 120.69-120.69z" />
<glyph unicode="&#xe64e;" glyph-name="eclipse" horiz-adv-x="1082" d="M90.647 439.648c0 261.929 203.43 476.426 462.197 499.088-15.284 1.581-30.040 2.635-45.324 2.635-280.375 0-508.047-224.511-508.047-501.723s227.146-501.196 507.52-501.196c15.284 0 30.567 0.527 45.324 2.108-258.767 22.662-461.67 237.686-461.67 499.088zM112.782 468.634h969.19c-1.054 18.446-3.162 36.364-6.324 54.283h-956.541c-2.635-17.919-5.27-36.364-6.324-54.283zM132.809 579.835h929.136c-60.080 197.106-245.591 340.982-464.305 340.982s-404.224-143.876-464.832-340.982zM119.634 354.27h955.487c3.162 18.446 5.797 37.418 6.851 56.918h-969.19c1.581-18.973 3.689-37.945 6.851-56.918zM597.641-40.995c218.186 0 402.643 142.295 463.778 338.347h-927.555c61.134-196.051 245.591-338.347 463.778-338.347z" />
<glyph unicode="&#xe900;" glyph-name="cake" horiz-adv-x="1178" d="M1135.538 2.927h-82.011v476.248c-0.081 34.017-27.637 61.574-61.655 61.655h-800.923c-34.046-0.040-61.647-27.609-61.728-61.655v-476.248h-97.9c-17.623-1.166-31.322-15.801-31.322-33.463s13.698-32.297 31.322-33.463h1104.217c17.623 1.166 31.322 15.801 31.322 33.463s-13.698 32.297-31.322 33.463zM984.258 2.927h-785.693v314.057c3.808-7.029 7.762-14.938 11.936-23.505 19.478-40.127 43.715-90.212 98.267-90.212s78.789 50.085 98.193 90.065c15.89 32.804 28.264 55.797 43.202 55.797s27.313-22.992 43.202-55.65c19.331-40.127 43.568-90.212 98.12-90.212s78.789 50.085 98.34 90.212c15.816 32.658 28.191 55.65 43.202 55.65 14.938 0 27.386-22.992 43.202-55.723 19.478-40.127 43.715-90.065 98.34-90.065 54.552 0 78.862 50.012 98.34 90.065 3.954 8.201 7.689 15.816 11.35 22.553v-313.032zM984.258 403.169c-33.17-14.864-51.257-52.062-66.487-83.402-15.816-32.658-28.191-55.723-43.202-55.723s-27.386 23.066-43.202 55.723c-19.478 40.127-43.788 90.065-98.34 90.065-54.625 0-78.935-49.939-98.267-90.065-15.89-32.658-28.191-55.723-43.275-55.723-14.938 0-27.239 23.066-43.129 55.723-19.404 40.127-43.641 90.065-98.12 90.065-54.552 0-78.862-49.939-98.34-90.065-15.816-32.658-28.264-55.723-43.202-55.723s-27.239 23.066-43.056 55.723c-15.304 31.486-33.537 68.977-67.073 83.695v61.435h785.693v-61.728zM364.857 871.875c16.329 0 29.656 13.18 29.656 29.656v28.777c0 16.399-13.294 29.692-29.692 29.692s-29.692-13.294-29.692-29.692v-28.777c0-16.402 13.327-29.656 29.729-29.656v0zM364.857 823.474c-14.368 0-26.027-11.626-26.068-25.994v-219.232c0-14.377 11.655-26.031 26.031-26.031s26.031 11.655 26.031 26.031v219.232c-0.040 14.34-11.655 25.954-25.994 25.994v0zM584.894 871.875c16.329 0 29.656 13.18 29.656 29.656v28.777c0 16.378-13.277 29.656-29.656 29.656s-29.656-13.277-29.656-29.656v-28.777c0-16.402 13.254-29.656 29.656-29.656v0zM584.894 823.474c-14.368 0-26.027-11.626-26.068-25.994v-219.232c0-14.377 11.655-26.031 26.031-26.031s26.031 11.655 26.031 26.031v219.232c0 6.894-2.739 13.506-7.614 18.381s-11.487 7.614-18.381 7.614v0zM804.932 871.875c16.329 0 29.656 13.18 29.656 29.656v28.777c0 16.378-13.277 29.656-29.656 29.656s-29.656-13.277-29.656-29.656v-28.777c0-16.402 13.254-29.656 29.656-29.656v0zM804.932 823.474c-14.368 0-26.027-11.626-26.068-25.994v-219.232c0-14.377 11.655-26.031 26.031-26.031s26.031 11.655 26.031 26.031v219.232c-0.040 14.34-11.655 25.954-25.994 25.994v0z" />
<glyph unicode="&#xe901;" glyph-name="turkey" horiz-adv-x="1083" d="M1052.348 776.68c-1.021-8.19-1.465-15.959-1.836-21.488-1.836-27.513-7.090-88.342-27.572-88.049-9.462 0.139-15.227 17.175-6.301 32.174 8.926 14.995 19.659 57.502 18.906 75.792-0.132 3.203-0.389 6.31-0.749 9.319-4.924 1.264-9.594 1.986-13.332 2.408-3.565-6.977-9.378-12.206-17.955-14.346-37.809-9.432-36.233-70.753-39.387-113.894-1.81-24.823 14.335-92.567 28.379-145.658 10.153-18.861 16.582-42.793 19.497-70.104 3.962-37.443 1.527-80.64-6.918-125.551-19.281-102.531-65.101-176.010-186.238-212.321-25.681-7.695-49.492-12.91-73.37-14.691l5.137-27.381c14.228-1.59 25.666-2.122 29.922-1.858 7.054 0.531 23.544 7.963 35.51 12.745 4.395 1.858 9.712 4.379 13.171-1.33 2.798-4.778-0.132-7.563-8.511-11.946-12.771-6.768-20.617-8.758-20.617-8.758s51.743-4.115 59.986-6.241c8.247-1.99 8.247-11.283-0.136-13.405-8.508-1.993-60.644 1.726-60.644 1.726s9.044-5.445 21.811-11.55c7.85-3.716 8.911-8.762 6.517-13.54-1.729-3.316-5.052-6.369-13.835-2.254-20.085 9.289-50.407 30.924-59.718 31.591-5.717 0.396-56.259 10.085-64.907 11.679-9.44 1.726-6.51 17.52 3.198 16.329 6.249-0.667 28.060-2.657 36.971-3.719l-12.099 27.575c-7.773 0.359-15.613 0.993-23.621 2.191-8.475-5.486-17.5-9.553-26.929-11.979l-3.191-56.278c13.431-4.91 24.48-8.098 28.6-8.762 6.914-1.195 24.737 2.125 37.508 3.983 4.788 0.663 10.505 1.726 12.502-4.647 1.594-5.178-1.865-7.3-11.037-9.557-14.1-3.452-22.214-3.584-22.214-3.584s49.345-16.325 56.788-20.308c7.446-3.851 5.32-12.877-3.323-12.877s-58.521 16.061-58.521 16.061c0 0 7.45-7.431 18.359-16.457 6.782-5.442 6.65-10.62 3.191-14.603-2.526-2.921-6.517-5.042-13.968 0.931-17.291 13.936-41.499 42.075-50.41 44.996-5.585 1.858-52.268 23.097-60.379 26.813-8.643 3.983-2.126 18.45 7.046 15.13 5.985-2.122 26.602-9.289 35.113-12.474l-8.647 49.906c-35.881 7.061-68.938 39.532-84.54 71.739-2.607 1.539-5.163 3.001-7.825 4.606-48.427 1.484-94.556 17.461-166.366 30.052-91.722 16.083-100.042 62.398-100.042 62.398l130.981 55.117c-9.286 26.677-15.179 54.941-18.572 83.095l-223.532-215.227c-22.027-20.125-54.218-15.86-69.353 9.681l-28.387 47.913c-15.209 25.666-6.033 60.482 19.391 75.117l123.92 66.861-129.942-51.474c-27.248-9.916-56.516 6.889-62.854 36.472l-11.768 54.937c-6.242 29.136 13.083 57.026 41.315 60.529l136.896 13.104-137.821 3.001c-28.427 1.407-50.396 27.403-47.15 56.007l5.97 52.643c3.143 27.67 29.261 44.933 56.226 37.813l131.109-38.341-127.151 52.654c-25.637 11.4-37.886 41.591-26.389 64.93l21.036 42.691c10.99 22.302 39.729 27.883 62.211 12.58l110.026-78.826-102.267 89.57c-20.037 18.406-22.405 47.876-5.269 63.468l31.24 28.425c16.273 14.804 43.933 9.857 60.141-10.389l79.678-104.228-69.584 110.571c-13.141 21.972-7.079 47.088 12.818 54.27l36.277 13.1c18.891 6.82 42.887-6.339 52.331-28.436l45.964-114.565-34.945 116.467c-6.191 22.507 6.121 41.181 26.345 40.565l36.975-1.129c19.303-0.586 38.183-19.385 41.227-40.877l13.185-112.22-2.379 110.124c0.073 20.774 16.42 32.17 35.202 24.958l34.486-13.243c18.084-6.948 31.218-29.044 28.651-48.158l-16.178-100.204 25.938 94.755c5.331 17.49 23.793 21.547 39.931 9.099l29.811-23.002c15.726-12.133 22.96-35.567 15.719-51.082l-40.977-81.098 49.11 72.992c9.525 13.185 28.497 10.22 41.198-6.175l23.621-30.499c12.543-16.197 13.971-39.33 2.993-50.353l-60.761-56.762 66.834 46.67c12.686 8.168 30.832-1.338 39.516-20.495l16.266-35.886c8.702-19.194 4.524-40.565-9.257-46.388l-40.36-15.237c2.251-0.399 4.494-0.806 6.657-1.239 67.921-13.661 97.567 7.809 155.879-2.957-5.074 15.794-11.126 33.002-18.451 51.529-36.237 91.655-26.786 120.608-29.936 198.51-3.15 77.906 108.487 76.077 136.279 58.1 8.541-5.526 15.844-12.705 21.855-20.667 4.895 2.067 11.717 3.815 18.473 1.539 12.451-4.192 26.018-9.256 27.157-23.222 0.25-3.082 0.33-7.791 0.305-13.383 8.654-6.449 16.703-14.361 21.223-23.669 13.395-27.557 1.054-46.121 1.054-46.121s-9.716 14.936-23.11 25.156z" />
<glyph unicode="&#xe902;" glyph-name="jenkins" horiz-adv-x="764" d="M161.208 751.814c0-7.814 0-15.627 0-23.441 0.822-16.039 10.692-5.346 15.627-4.112 26.32 6.169 49.761-4.524 60.864-28.787 1.645-3.701 0.411-10.281 8.636-9.87 0.411 3.29 1.645 6.991 0.822 9.87-7.402 28.376-4.524 56.752-0.822 85.128 1.645 13.571 6.991 28.376-0.411 42.358 3.701 13.571-4.524 12.749-13.571 11.515-43.181-4.524-70.734-37.012-71.145-82.66zM279.647 895.339c11.104 7.402 22.207 14.394 35.367 23.030-36.601 3.29-103.222-40.302-115.971-75.258 9.047 3.29 17.272 5.757 25.497 8.636 13.16-1.645 26.32-3.29 34.956 10.281 6.58 11.104 13.16 22.207 20.151 33.311zM574.92 131.246c0.822-6.991-2.879-15.627 4.935-20.151 4.524-2.467 10.692-0.411 15.627 2.467 9.459 5.757 4.524 14.394 4.112 21.796 1.234 22.207-2.879 43.181-11.104 63.743-3.701 9.459-10.692 9.87-18.095 8.636-10.281-1.234-5.757-8.636-4.935-13.982 3.29-20.973 6.169-41.947 9.459-62.509zM504.186 257.909c0.822-3.701 0.411-9.459 5.346-8.636 4.935 0.411 3.29 5.757 3.29 9.459 6.991 26.731 7.402 54.284 7.402 81.838 4.112 18.095-13.982 12.749-20.562 18.917-13.571 12.337-30.021 2.467-39.891-4.935s6.169-16.039 9.459-24.675c1.234-3.701 4.524-6.58 6.991-9.459 3.29-6.58 6.58-13.571 9.87-20.151 0.822-6.169 2.467-12.337 7.402-16.45 1.234-9.87 5.346-18.095 10.692-25.908zM526.394 253.797c18.095 20.562 30.432 45.237 44.414 68.678 3.701 5.757 7.814 11.926 1.234 18.506-8.225 7.814-17.684 12.749-29.61 10.692-9.047-1.645-9.459-8.636-10.281-15.627-2.879-26.32-5.757-53.051-9.047-79.37-1.234-2.056-2.056-3.701 0.411-5.346 0.411 0 2.056 1.645 2.879 2.467zM563.817 428.576c-1.645 6.58-5.346 10.692-12.749 11.515-8.225 0.822-48.527-18.917-52.228-26.32-1.234-2.056-1.234-6.991-0.411-7.402 15.627-6.169 1.234-16.45 3.29-24.263-0.822-4.935-1.234-10.281 4.935-11.515 19.329-3.701 41.947-13.571 57.163-3.701 14.805 9.87 6.169 32.9 3.29 50.172-0.411 4.112-2.056 7.814-3.29 11.515zM512.822 171.548c0.411-20.973 0.822-42.358 0.822-63.332 0-11.926 2.467-19.329 16.861-18.506 12.337 0.822 20.562 3.29 20.562 18.506 0 23.441-2.879 46.059-6.169 69.089-2.879 12.749 2.056 33.722-23.441 25.908-18.917-5.757-10.692-19.74-8.636-31.666zM428.517 389.096c7.814 2.467 17.272 2.467 22.207 10.692-12.337 6.58-23.441 13.16-35.367 18.095-12.337 5.346-25.497 9.87-38.246 13.571-18.095 5.346-25.908 0-27.965-18.095-2.056-23.030-2.056-46.471 8.636-68.267 4.935-9.87 2.056-26.731 22.207-22.207 27.142 6.169 48.527 21.385 67.855 40.302 7.402 7.402 9.87 18.095-6.991 18.506-5.346 0.411-11.104-0.411-12.337 7.402zM723.38 176.483c-1.234 16.45-5.346 32.077-12.337 46.882-6.169 13.571-17.272 24.263-32.077 18.506-22.618-8.636-46.882-13.982-67.033-28.376-16.861-13.571-1.645-27.553 0-41.124 0.411-2.467 0.411-5.346 0.822-7.814 0.411-8.225 1.234-16.45 0.822-24.263-0.411-16.861 5.757-23.852 23.852-21.385 15.627 2.056 31.666 0.411 50.994 0.411-12.337-10.692-26.731-5.757-36.19-15.627 60.864-8.636 89.24 21.385 71.145 72.79zM640.72 402.667c1.234 7.814 1.234 15.627-4.524 21.385-18.506 18.095-37.423 35.778-57.163 53.051-9.459 8.225-14.394-2.467-19.74-7.814-6.991-6.991 0.411-9.047 4.935-11.104 7.814-3.701 11.515-11.515 16.45-18.095 3.701-25.086 6.169-49.761 0-74.847-0.822-3.701-0.411-9.047 1.645-11.515 10.692-13.982 3.29-24.675-3.701-37.423-16.039-28.787-37.423-55.107-48.527-86.773-0.411-0.411-0.411-0.822-0.822-1.234 0.411 0.411 0.411 0.822 0.822 1.234 12.337 0.822 24.675 0.822 36.601 2.056 11.104 1.234 21.385 4.524 25.908 16.861 19.74 50.583 38.657 101.166 48.116 154.217zM126.252 665.864c-0.822 19.74 13.982 36.19 11.104 56.341-82.249-79.37-120.906-176.013-113.092-290.75 0-2.879 0-5.757 0.411-8.636-0.411-1.234-0.411-2.467 0-3.701 8.636-83.483 40.713-155.451 100.755-215.081 1.234 10.692 0.411 20.973-0.822 30.843-6.991 48.116-30.432 90.474-43.181 136.945-4.935 18.506-0.822 30.021 15.216 39.48 33.722 19.74 67.033 39.891 100.344 60.042 29.61 17.684 29.198 17.272 13.571 46.882-3.701 6.58-7.814 13.571-8.636 20.562-1.645 16.45-9.87 24.675-25.497 30.021-15.216 5.346-25.497 18.095-33.311 32.077-10.692 20.151-14.805 42.358-16.861 64.977zM480.334 203.625c-60.864 7.814-121.317 1.234-181.359-8.225-8.225-1.234-11.104-4.112-9.87-13.571 9.047-74.024 22.207-147.226 44.414-218.371 2.056-6.991 3.701-13.982 13.16-16.039 34.956-7.814 69.5-13.982 105.69-9.047 2.879-0.411 5.346-0.822 8.225-0.822 18.095 0 37.835 0.411 50.994 10.692 9.459 7.402-1.234 25.497-2.056 39.068-3.29 66.622-8.225 133.655-11.515 200.276-1.234 12.749-6.169 16.861-17.684 16.039zM278.413 176.894c2.056 12.749-4.112 17.272-16.039 16.861-10.692-0.411-21.385 0-32.488 0.411 4.524 12.749 30.432 16.861 11.515 39.48 32.077-13.982 33.311-12.749 33.311 19.329 0 11.515 0.411 23.441-2.879 34.545-2.467 8.225-0.822 16.861 3.701 23.852 5.346 7.814 6.991-0.411 9.047-3.701-0.411-25.086-1.645-49.761-1.234-74.847 0-9.459 0-23.030 16.861-15.216 48.527 2.467 96.231 11.104 145.169 12.749-18.506 12.337-37.012 21.796-55.929 31.255-8.636 4.524-20.151 10.281-15.627 20.562 6.169 15.627 2.879 23.030-12.337 28.376-5.346 2.056-7.814 9.047-9.459 15.216-3.701 13.16-9.047 25.908-11.104 39.48-2.879 17.684-10.692 29.198-27.965 35.778-19.74 7.402-37.423 19.329-55.107 31.255-2.467 3.29-4.935 6.58-6.991 9.87-11.515 20.973-26.32 20.562-45.648 9.459-22.618-13.16-44.826-25.908-65.799-41.536-35.778-26.731-35.778-26.731-21.796-68.267 23.030-68.678 33.722-139.412 37.423-211.38 0.411-9.87-2.467-21.796 12.337-24.263 30.432-17.272 60.864-34.133 94.998-42.358 25.908-6.169 31.255-0.822 27.142 24.675-3.701 28.787-6.991 58.397-11.104 88.418zM611.933 243.104c18.917 6.169 35.778 13.16 53.462 17.272 12.337 2.879 20.151 8.225 25.908 19.74 64.977 129.953 59.631 257.028-16.039 380.813-9.459 15.627-18.917 32.488-36.601 43.181-3.701-64.977-11.515-127.486-43.592-183.827-6.58-11.515-3.701-20.973 5.757-29.198 14.394-12.749 27.965-25.908 43.181-37.835 18.917-14.805 23.030-32.9 16.039-54.696-12.337-39.068-25.086-78.137-37.423-117.205-4.112-11.926-10.692-23.441-10.692-38.246zM493.083 239.814c-13.571 32.077-24.675 61.687-42.358 87.595-3.29 4.935-6.169 13.982-15.216 7.814-16.039-10.692-31.666-21.385-40.713-39.48-3.29-6.991-3.701-11.515 4.524-16.039 28.787-15.216 58.397-29.61 93.764-39.891zM283.759 436.39c9.459-16.45 25.908-21.796 42.358-25.086 9.047-2.056 9.047 6.169 10.281 11.926 1.234 6.169-2.056 8.636-7.814 8.636-14.805-0.411-29.198 2.879-44.826 4.524zM496.784 435.156c-18.506-1.645-34.956-3.701-51.817-9.459 25.497-11.926 35.367-10.281 51.817 9.459zM470.876 402.667c-4.112 0.411-9.047-1.645-7.814-8.636 0.822-7.402-2.056-18.506 9.459-18.506 6.58 0 11.515 6.169 11.926 13.982s-2.879 12.337-13.571 13.16zM26.32 470.523c0.411-0.822 0.822-1.645 1.234-2.467 0-0.411-0.822-0.822-0.822-1.234-0.411 1.234-0.411 2.467-0.411 3.701zM526.394 253.797c-0.822-0.822-2.467-2.879-2.467-2.467-2.467 1.234-1.645 3.29-0.411 5.346 0.822-0.822 2.056-1.645 2.879-2.879zM530.095 229.945c-0.411-0.411-0.411-0.822-0.822-1.234 0 0.411 0.411 0.822 0.822 1.234 0 0 0 0 0 0zM479.1 613.636c0.411-1.234 0-2.879 0.822-4.112 10.281-13.16 24.263-8.225 35.778-4.112 17.684 6.58 39.48 8.225 49.349 28.376 4.524 8.636-2.879 15.216-8.225 21.796-17.684 21.796-36.601 42.358-47.293 69.089-4.112 10.692-8.225 20.973-3.29 37.423 18.095-43.592 46.059-74.847 74.435-105.69 11.926-13.16 4.524-29.61-6.169-37.835-25.908-19.74-55.929-31.255-89.24-30.432-10.692 0.411-15.216 6.991-16.039 15.216-0.822 6.169-7.814 17.272 6.991 18.095 1.234-2.879 2.056-5.346 2.879-7.814zM532.151 526.452c-0.822-6.991-4.935-9.459-9.047-11.926-38.657-20.562-97.465 0-115.56 39.891-1.234 2.467-2.879 4.935 0.411 6.991 2.467 1.645 5.757 1.645 6.991-0.822 25.497-39.891 66.21-30.843 103.634-32.9 2.879 0 5.346 0 8.225 0 1.234 0 2.467-0.411 5.346-1.234zM421.115 585.26c30.021-10.281 57.986-10.692 86.361-10.281 13.16 0.411 11.104-9.047 12.337-16.45 1.645-10.281-6.169-8.225-11.926-8.636-23.852 0-47.293 2.879-68.678 14.805-7.402 4.524-13.982 9.047-18.095 20.562zM422.76 761.273c11.104-11.515 16.861-27.142 27.965-39.068 7.814-8.225 3.29-18.506-5.757-24.263-15.627-9.87-32.488-7.402-48.527-0.822-5.346 2.467-8.225 7.814-5.757 13.571 2.467 6.169 7.814 3.701 12.337 3.29 8.225-0.822 16.45-2.879 24.263-2.056 10.281 1.234 11.926 7.814 4.112 15.216-0.411 12.337-15.627 20.151-8.636 34.133zM386.159 841.055c4.524-2.879 10.281-4.935 13.16-9.047 4.524-6.169 5.757-14.394-5.757-13.16-27.965 2.879-44.003-11.926-57.163-34.133-9.459-15.627-9.459-0.411-11.926 4.524 10.692 29.198 28.787 49.349 61.687 51.817zM179.303 669.977c-1.234 5.757-11.104 0.411-9.87 6.58 0.822 3.701 5.757 7.814 9.87 9.459 11.515 4.524 20.973-1.234 30.432-7.814 5.757-10.281 12.749-20.562 7.402-34.545-9.87 5.346-9.047 24.675-20.973 20.562-15.216-5.346-5.346-23.852-11.515-37.835-10.692 15.216-6.58 29.61-5.346 43.592zM586.847 764.563c1.645 1.234 0.822 9.459 4.524 4.112 8.225-13.16 14.394-27.553 21.796-41.124 3.701-6.58 0.411-10.281-4.112-13.571-8.225-6.169-17.684-10.281-27.965-10.692-9.047-0.411-17.684 2.056-18.095 11.926s9.459 7.402 15.627 8.225c11.104 1.234 24.675-0.411 13.571 17.684-2.056 7.402-3.701 15.216-5.346 23.441zM595.071 598.831c-13.982-25.497-29.198-40.302-51.406-46.059-4.524-1.234-11.515-5.757-13.16 2.467-1.234 6.58-4.935 17.684 3.701 19.74 18.917 5.346 36.601 15.627 60.864 23.852zM681.433 182.651c-13.16-7.402-27.553-5.346-46.059-5.757 16.861 12.749 31.666 7.402 46.059 5.757zM660.048 207.326c-8.225-7.814-16.45-15.216-31.255-14.394 8.636 11.515 17.684 17.272 31.255 14.394zM414.946 940.165c0 0 150.104 22.618 201.51-138.178l8.636-31.666c0 0-14.805 26.731-30.843 39.48 0 0-44.826 114.326-158.741 112.27-0.411 0-17.272 10.692-20.562 18.095z" />
<glyph unicode="&#xe903;" glyph-name="gradle" horiz-adv-x="1016" d="M697.215 760.606l142.129-247.327h162.273c-36.931 238.374-242.85 420.791-491.296 420.791-64.909 0-126.461-12.31-183.537-34.693l79.458-138.772h290.973zM697.215 112.632h-373.788l-186.894 323.427 138.772 240.612-81.696 143.248c-110.793-90.649-181.298-228.302-181.298-383.86 0-275.305 222.706-498.011 498.011-498.011 248.446 0 454.365 182.417 491.296 420.791h-162.273l-142.129-246.208zM683.786 436.059c0-97.656-79.166-176.822-176.822-176.822s-176.822 79.166-176.822 176.822c0 97.656 79.166 176.822 176.822 176.822s176.822-79.166 176.822-176.822z" />
<glyph unicode="&#xe904;" glyph-name="statistics" d="M0 118.857h1024v-128h-1024zM128 374.857h128v-192h-128zM320 630.857h128v-448h-128zM512 438.857h128v-256h-128zM704 822.857h128v-640h-128z" />
<glyph unicode="&#xe905;" glyph-name="done" d="M337.462 194.504l-244.353 244.353-81.451-81.451 325.803-325.803 698.151 698.151-81.451 81.451-616.701-616.701z" />
</font>
</defs>
</svg>
